<svg width="24" height="24" viewBox="0 0 24 24" fill="none" xmlns="http://www.w3.org/2000/svg">
<g clip-path="url(#clip0_5830_56)">
<path d="M17.5641 6.65489C11.9512 7.4356 10.4204 5.31799 10.4204 5.31799M18.3041 23.1111V20.9782C18.3041 19.6343 17.7702 18.3455 16.82 17.3953C15.8697 16.445 14.5809 15.9112 13.2371 15.9112H10.7623C9.41841 15.9112 8.12959 16.445 7.17934 17.3953C6.2291 18.3455 5.69531 19.6343 5.69531 20.9782V23.1111M14.3439 16.4215V16.5694C14.3439 17.6869 13.2673 18.6105 11.9406 18.6105C10.619 18.6105 9.54227 17.7073 9.54227 16.5694V16.4215M10.8126 4.31789C10.2303 5.04199 9.49405 5.62739 8.65735 6.03162C7.82066 6.43584 6.90446 6.64876 5.97526 6.65493M18.2377 7.43566C18.2377 11.0513 15.43 13.9824 11.9665 13.9824C8.50303 13.9824 5.69531 11.0513 5.69531 7.43566C5.69531 3.81999 8.50303 0.888916 11.9665 0.888916C15.43 0.888916 18.2377 3.81999 18.2377 7.43566Z" stroke="#0A77A9" stroke-linecap="round" stroke-linejoin="round"/>
</g>
<defs>
<clipPath id="clip0_5830_56">
<rect width="24" height="23.9999" fill="white"/>
</clipPath>
</defs>
</svg>
