<svg width="25" height="24" viewBox="0 0 25 24" fill="none" xmlns="http://www.w3.org/2000/svg">
<g clip-path="url(#clip0_3080_1485)">
<path d="M18.2781 9.35755V5.72172C18.2781 5.08662 18.153 4.45776 17.9098 3.87107C17.6666 3.28438 17.3102 2.75136 16.8609 2.30251C16.4115 1.85366 15.8782 1.49775 15.2912 1.25516C14.7043 1.01257 14.0753 0.88803 13.4402 0.888674H11.5413C7.773 0.888674 9.1714 3.44505 7.74356 3.44505C6.69354 3.44505 6.70335 4.59319 6.70335 5.72172V9.35755M7.80735 8.38113V10.9179C7.80735 11.9589 8.22091 12.9573 8.95705 13.6935C9.69319 14.4296 10.6916 14.8432 11.7327 14.8432H13.2783C14.3193 14.8432 15.3177 14.4296 16.0539 13.6935C16.79 12.9573 17.2036 11.9589 17.2036 10.9179V8.38113M6.77629 8.15543C10.3189 8.15543 10.2355 5.80516 10.2355 5.80516C10.2355 5.80516 11.2168 8.38115 18.1941 8.38115M5.16235 23.1108V20.5692C5.16235 19.67 5.51955 18.8076 6.15539 18.1718C6.79124 17.5359 7.65362 17.1787 8.55284 17.1787H9.80894M15.1721 17.1787H16.4478C17.3471 17.1787 18.2094 17.5359 18.8453 18.1718C19.4811 18.8076 19.8383 19.67 19.8383 20.5692V23.1108M10.8782 15.2406C10.8782 16.2219 9.79876 17.2033 9.79876 17.2033M14.0921 15.2406C14.0921 16.06 15.1716 17.2033 15.1716 17.2033M10.2895 15.7067L12.4877 18.2336L14.681 15.7067M9.28893 16.845L10.0936 19.7105L11.9434 17.8607L10.1721 15.898L9.28893 16.845ZM15.6819 16.845L14.8772 19.7105L13.0274 17.8607L14.7987 15.898L15.6819 16.845Z" stroke="#0A77A9" stroke-linecap="round" stroke-linejoin="round"/>
</g>
<defs>
<clipPath id="clip0_3080_1485">
<rect width="24" height="23.9999" fill="white" transform="translate(0.5)"/>
</clipPath>
</defs>
</svg>
