<svg width="25" height="24" viewBox="0 0 25 24" fill="none" xmlns="http://www.w3.org/2000/svg">
<path d="M21.5807 19.4932V20.7466V22M3.37174 19.4932V22M4.22321 15.503C4.23769 15.3804 4.22612 15.2562 4.18925 15.1383C4.15238 15.0205 4.09104 14.9119 4.00927 14.8194C3.92749 14.727 3.82714 14.6528 3.71474 14.6019C3.60234 14.551 3.48046 14.5244 3.35707 14.5238C3.23374 14.5261 3.11237 14.5552 3.00137 14.609C2.89037 14.6628 2.79238 14.7402 2.71419 14.8356C2.636 14.9311 2.57949 15.0424 2.54854 15.1618C2.51759 15.2813 2.51296 15.4061 2.53495 15.5275C2.54514 15.6136 2.52909 15.7008 2.48893 15.7777C2.44876 15.8546 2.38635 15.9176 2.30984 15.9584C1.9788 16.1821 1.72956 16.5077 1.59979 16.8857C1.47001 17.2637 1.46673 17.6737 1.59047 18.0538C1.70937 18.4327 1.94603 18.7637 2.26596 18.9986C2.58589 19.2336 2.9724 19.3603 3.36929 19.3603C3.76617 19.3603 4.15271 19.2336 4.47264 18.9986C4.79257 18.7637 5.0292 18.4327 5.14811 18.0538C5.2737 17.6743 5.27342 17.2644 5.14733 16.885C5.02124 16.5057 4.77608 16.1772 4.44833 15.9486C4.26237 15.8359 4.16449 15.6989 4.22321 15.503ZM19.7163 17.4173C19.7059 17.7293 19.7735 18.039 19.913 18.3182C20.0525 18.5975 20.2594 18.8374 20.5151 19.0164C20.7707 19.1953 21.067 19.3076 21.377 19.343C21.687 19.3784 22.0009 19.3358 22.2903 19.2191C22.5988 19.0915 22.8675 18.8837 23.0686 18.6171C23.2696 18.3506 23.3957 18.035 23.4336 17.7032C23.4716 17.3715 23.4201 17.0356 23.2844 16.7305C23.1488 16.4253 22.9339 16.1621 22.6622 15.9682C22.5822 15.9275 22.5161 15.8638 22.4725 15.7853C22.4289 15.7068 22.4098 15.617 22.4176 15.5275C22.4408 15.4057 22.4372 15.2804 22.4071 15.1601C22.3769 15.0399 22.3209 14.9277 22.2429 14.8314C22.1649 14.735 22.0669 14.6569 21.9556 14.6024C21.8443 14.5479 21.7224 14.5183 21.5986 14.5158C21.4747 14.5133 21.3517 14.5378 21.2383 14.5878C21.1249 14.6377 21.0238 14.7117 20.9419 14.8048C20.8601 14.8979 20.7995 15.0077 20.7645 15.1266C20.7294 15.2455 20.7207 15.3706 20.739 15.4932C20.753 15.5884 20.7387 15.6856 20.6978 15.7727C20.6569 15.8598 20.5912 15.9329 20.509 15.9828C20.2715 16.1407 20.0755 16.3535 19.9375 16.6032C19.7995 16.8529 19.7236 17.1321 19.7163 17.4173Z" stroke="#0A77A9" stroke-linecap="round" stroke-linejoin="round"/>
<path d="M1.5 22H23.5" stroke="#0A77A9" stroke-linecap="round" stroke-linejoin="round"/>
<path d="M14.5 22V18.036L10.5 18V21.994" stroke="#0A77A9" stroke-linecap="round" stroke-linejoin="round"/>
<path d="M15.5 2V4H9.5V2H15.5Z" stroke="#0A77A9" stroke-linecap="round" stroke-linejoin="round"/>
<path d="M17.5 22V4H7.5V21.9951" stroke="#0A77A9" stroke-linecap="round" stroke-linejoin="round"/>
<path d="M15.4922 15.0045C15.4922 15.2319 15.4922 15.4645 15.4922 15.6919C15.4922 15.9192 15.3839 16.002 15.1372 16.002H13.8378C13.6032 16.002 13.4949 15.9089 13.4949 15.7022C13.4949 15.2319 13.4949 14.7668 13.4949 14.2965C13.4949 14.0949 13.6092 14.0071 13.8498 14.002H15.1433C15.3779 14.002 15.4862 14.1001 15.4922 14.3068C15.4982 14.5136 15.4922 14.772 15.4922 15.0045Z" stroke="#0A77A9" stroke-linecap="round" stroke-linejoin="round"/>
<path d="M15.4973 7.07145C15.4973 7.30428 15.4973 7.54227 15.4973 7.7751C15.4973 8.00793 15.389 8.07002 15.1484 8.0752H13.8309C13.6143 8.0752 13.5 7.98208 13.5 7.79581C13.5 7.31291 13.5 6.83172 13.5 6.35227C13.5 6.17118 13.6143 6.08324 13.8369 6.07807H15.1544C15.2005 6.07211 15.2476 6.07545 15.2919 6.08782C15.3363 6.1002 15.3767 6.12124 15.4099 6.14934C15.4432 6.17744 15.4684 6.21182 15.4836 6.24973C15.4987 6.28764 15.5034 6.32806 15.4973 6.36781C15.5033 6.60063 15.4973 6.83345 15.4973 7.07145Z" stroke="#0A77A9" stroke-linecap="round" stroke-linejoin="round"/>
<path d="M15.4973 10.9998V11.6908C15.4973 11.9089 15.395 12.0024 15.1484 12.0024H13.8489C13.6083 12.0024 13.5 11.9142 13.5 11.7064C13.5 11.2388 13.5 10.7661 13.5 10.2986C13.5 10.0908 13.6083 10.0024 13.8489 10.0024H15.1484C15.383 10.0024 15.4913 10.0908 15.4973 10.2986C15.5033 10.5063 15.4973 10.7661 15.4973 10.9998Z" stroke="#0A77A9" stroke-linecap="round" stroke-linejoin="round"/>
<path d="M11.4955 15.0025C11.4955 15.2397 11.4955 15.4717 11.4955 15.7037C11.5036 15.7429 11.5007 15.7832 11.487 15.8213C11.4734 15.8593 11.4493 15.8941 11.4169 15.9228C11.3845 15.9514 11.3446 15.9731 11.3005 15.9861C11.2563 15.9991 11.2092 16.0031 11.163 15.9976H9.83864C9.6028 15.9976 9.5 15.9099 9.5 15.7089C9.5 15.2345 9.5 14.7601 9.5 14.2909C9.5 14.095 9.60885 14.0073 9.84469 14.0022H11.1508C11.1981 13.997 11.2461 14.0011 11.2912 14.0144C11.3362 14.0277 11.377 14.0496 11.4104 14.0786C11.4438 14.1076 11.4688 14.1428 11.4836 14.1814C11.4984 14.22 11.5025 14.261 11.4955 14.3012C11.4955 14.5384 11.4955 14.7704 11.4955 15.0025Z" stroke="#0A77A9" stroke-linecap="round" stroke-linejoin="round"/>
<path d="M11.5 7.09005V7.77492C11.5 7.98765 11.3912 8.07587 11.1556 8.08105H9.82631C9.60879 8.08105 9.5 7.99802 9.5 7.80605C9.5 7.32178 9.5 6.83926 9.5 6.35845C9.5 6.16647 9.60274 6.08347 9.82631 6.08347H11.1737C11.2178 6.07811 11.2627 6.08169 11.3048 6.09396C11.3469 6.10622 11.3851 6.12683 11.4162 6.15409C11.4474 6.18136 11.4707 6.21451 11.4842 6.2509C11.4977 6.2873 11.501 6.32593 11.494 6.36364C11.5 6.60751 11.5 6.84619 11.5 7.09005Z" stroke="#0A77A9" stroke-linecap="round" stroke-linejoin="round"/>
<path d="M11.4999 11.003C11.4999 11.2361 11.4999 11.4692 11.4999 11.7075C11.4999 11.9458 11.3971 11.9976 11.1675 11.9976H9.81972C9.77704 12.0028 9.73353 11.9994 9.69264 11.9877C9.65175 11.976 9.6146 11.9564 9.58412 11.9302C9.55363 11.9041 9.53067 11.8722 9.51702 11.8372C9.50336 11.8021 9.49938 11.7649 9.50543 11.7283C9.50543 11.2413 9.50543 10.7543 9.50543 10.2673C9.50142 10.2309 9.50706 10.1941 9.52192 10.1597C9.53678 10.1254 9.56049 10.0944 9.59127 10.069C9.62206 10.0436 9.65913 10.0245 9.69972 10.0131C9.74032 10.0017 9.78342 9.99826 9.82577 10.0031H11.1735C11.2174 9.99704 11.2624 9.9999 11.3048 10.0115C11.3472 10.023 11.3859 10.043 11.4176 10.0697C11.4494 10.0964 11.4734 10.1292 11.4877 10.1653C11.5019 10.2014 11.5061 10.2399 11.4999 10.2777C11.4999 10.5212 11.4999 10.7595 11.4999 11.003Z" stroke="#0A77A9" stroke-linecap="round" stroke-linejoin="round"/>
</svg>
