<svg width="70" height="70" viewBox="0 0 70 70" fill="none" xmlns="http://www.w3.org/2000/svg">
<path d="M44.6804 53.1C42.5879 52.9289 40.5581 52.3028 38.7328 51.2656C31.7246 47.568 22.1511 38.0518 18.6685 30.9003C17.4903 28.7705 16.9388 26.3508 17.0777 23.9208C17.1858 22.5411 17.7741 21.2429 18.7401 20.2519L21.2814 17.7106C21.4577 17.5023 21.6772 17.3349 21.9247 17.2201C22.1722 17.1054 22.4418 17.0459 22.7146 17.0459C22.9874 17.0459 23.257 17.1054 23.5045 17.2201C23.752 17.3349 23.9715 17.5023 24.1478 17.7106C26.5698 20.1183 28.0173 21.5658 30.425 24.0022C30.6333 24.1784 30.8007 24.3979 30.9155 24.6455C31.0302 24.893 31.0897 25.1625 31.0897 25.4353C31.0897 25.7082 31.0302 25.9777 30.9155 26.2252C30.8007 26.4727 30.6333 26.6923 30.425 26.8685C29.3932 27.9147 28.4427 28.8796 27.3821 29.8971C26.873 30.3856 26.0599 31.3772 26.2838 31.712C28.2009 36.117 33.7285 42.4179 38.437 43.8796C38.8768 44.0161 39.979 43.0681 40.2949 42.7383C41.2695 41.7207 42.1913 40.8132 43.1802 39.853C43.3594 39.6183 43.5904 39.428 43.8551 39.2971C44.1198 39.1662 44.4112 39.098 44.7065 39.098C45.0019 39.098 45.2932 39.1662 45.5579 39.2971C45.8226 39.428 46.0536 39.6183 46.2328 39.853L52.3811 46.0013C52.5974 46.1801 52.7716 46.4045 52.8911 46.6585C53.0106 46.9124 53.0726 47.1896 53.0726 47.4703C53.0726 47.7509 53.0106 48.0281 52.8911 48.282C52.7716 48.536 52.5974 48.7604 52.3811 48.9392L50.1838 51.1509C49.4751 51.8731 48.6111 52.424 47.6574 52.7617C46.7037 53.0995 45.6856 53.2152 44.6804 53.1Z" stroke="#0A77A9" stroke-width="2" stroke-linecap="round" stroke-linejoin="round"/>
<path d="M36.9941 18.3225C38.964 18.3225 40.9145 18.7105 42.7344 19.4643C44.5543 20.2181 46.2079 21.323 47.6007 22.7159C48.9936 24.1088 50.0985 25.7624 50.8523 27.5823C51.6062 29.4022 51.9941 31.3527 51.9941 33.3225" stroke="#0A77A9" stroke-width="2" stroke-linecap="round" stroke-linejoin="round"/>
<path d="M37.3223 23.6509C39.9725 23.6509 42.5143 24.7041 44.3894 26.5791C46.2644 28.4542 47.3193 30.9977 47.3223 33.6509" stroke="#0A77A9" stroke-width="2" stroke-linecap="round" stroke-linejoin="round"/>
</svg>
