<svg width="70" height="70" viewBox="0 0 70 70" fill="none" xmlns="http://www.w3.org/2000/svg">
<path d="M12.6844 44.7521H5V31.415C7.43812 25.0235 15.9715 20.4435 25.7122 19.8362C39.1935 19.6769 46.4734 28.0966 49.4147 29.2731C52.3561 30.4497 61.4009 33.1459 63.5702 35.401C65.7394 37.6561 64.7957 44.8624 64.7957 44.8624H56.4495" stroke="#0A77A9" stroke-width="2" stroke-linecap="round" stroke-linejoin="round"/>
<path d="M5 31.415C7.43812 25.0235 15.9715 20.4435 25.7122 19.8362C39.1935 19.6769 46.4734 28.0966 49.4147 29.2731" stroke="#0A77A9" stroke-width="2" stroke-linecap="round" stroke-linejoin="round"/>
<path d="M24.2656 44.7522H44.1076" stroke="#0A77A9" stroke-width="2" stroke-linecap="round" stroke-linejoin="round"/>
<path d="M50.3977 51.5296C53.491 51.5296 55.9986 49.022 55.9986 45.9287C55.9986 42.8355 53.491 40.3279 50.3977 40.3279C47.3045 40.3279 44.7969 42.8355 44.7969 45.9287C44.7969 49.022 47.3045 51.5296 50.3977 51.5296Z" stroke="#0A77A9" stroke-width="2" stroke-linecap="round" stroke-linejoin="round"/>
<path d="M18.5208 51.5296C21.6141 51.5296 24.1217 49.022 24.1217 45.9287C24.1217 42.8355 21.6141 40.3279 18.5208 40.3279C15.4275 40.3279 12.9199 42.8355 12.9199 45.9287C12.9199 49.022 15.4275 51.5296 18.5208 51.5296Z" stroke="#0A77A9" stroke-width="2" stroke-linecap="round" stroke-linejoin="round"/>
<path d="M51.3497 29.9106C51.3497 29.9106 28.3823 30.4008 24.1173 30.4008C19.8523 30.4008 17.1806 28.8321 16.004 26.7241L14.1426 22.8818" stroke="#0A77A9" stroke-width="2" stroke-linecap="round" stroke-linejoin="round"/>
<path d="M29.9902 29.555L30.3334 20.0813" stroke="#0A77A9" stroke-width="2" stroke-linecap="round" stroke-linejoin="round"/>
</svg>
