<?xml version="1.0" encoding="utf-8"?>
<!-- Generator: Adobe Illustrator 16.0.3, SVG Export Plug-In . SVG Version: 6.00 Build 0)  -->
<!DOCTYPE svg PUBLIC "-//W3C//DTD SVG 1.1//EN" "http://www.w3.org/Graphics/SVG/1.1/DTD/svg11.dtd">
<svg version="1.1" id="Vrstva_1" xmlns="http://www.w3.org/2000/svg" xmlns:xlink="http://www.w3.org/1999/xlink" x="0px" y="0px"
	 width="22px" height="22px" viewBox="29 29 22 22" enable-background="new 29 29 22 22" xml:space="preserve">
<g>
	<defs>
		<rect id="SVGID_1_" x="29" y="29" width="22" height="22"/>
	</defs>
	<clipPath id="SVGID_2_">
		<use xlink:href="#SVGID_1_"  overflow="visible"/>
	</clipPath>
	<path id="ico_smart_klic_1_" clip-path="url(#SVGID_2_)" fill="#0A77A9" d="M40.51,42.263c-0.311,0-0.588-0.219-0.65-0.535
		c-0.121-0.614-0.32-1.149-0.606-1.634c-0.187-0.315-0.082-0.723,0.233-0.909s0.723-0.082,0.909,0.233
		c0.364,0.617,0.614,1.288,0.766,2.053c0.071,0.359-0.163,0.708-0.522,0.779C40.595,42.259,40.553,42.263,40.51,42.263z
		 M37.682,49.567c1.653-1.157,2.801-2.641,3.317-4.289c0.188-0.604,0.297-1.239,0.319-1.888c0.013-0.366-0.273-0.674-0.64-0.687
		c-0.366-0.015-0.674,0.273-0.687,0.64c-0.019,0.529-0.106,1.047-0.26,1.538c-0.541,1.727-1.827,2.909-2.811,3.599
		c-0.302,0.21-0.374,0.623-0.164,0.924c0.129,0.184,0.335,0.283,0.544,0.283C37.434,49.688,37.566,49.648,37.682,49.567z
		 M48.48,42.334c0.351-0.105,0.549-0.477,0.442-0.827s-0.477-0.549-0.828-0.442c-1.22,0.371-2.112,0.377-2.983,0.022
		c-0.339-0.138-0.727,0.025-0.864,0.365c-0.139,0.339,0.024,0.726,0.364,0.864c0.645,0.263,1.265,0.358,1.845,0.358
		C47.215,42.675,47.902,42.51,48.48,42.334z M43.567,50.758c0.659-0.659,2.392-2.393,2.257-5.97
		c0.815,0.139,1.939,0.139,2.887-0.244c0.34-0.138,0.504-0.524,0.367-0.864c-0.138-0.339-0.524-0.504-0.864-0.366
		c-0.76,0.308-1.73,0.265-2.332,0.135c-0.353-0.077-0.711,0.014-0.984,0.247c-0.279,0.239-0.429,0.592-0.407,0.967
		c0.175,3.12-1.252,4.548-1.862,5.158c-0.259,0.259-0.259,0.679,0.001,0.938c0.13,0.129,0.299,0.194,0.469,0.194
		S43.438,50.888,43.567,50.758z M47.021,48.847c0.542-0.588,0.642-1.639,0.66-2.047c0.173-0.009,0.367-0.032,0.609-0.101
		c0.352-0.102,0.556-0.469,0.455-0.821c-0.102-0.352-0.469-0.557-0.821-0.455c-0.147,0.043-0.249,0.052-0.42,0.056
		c-0.221,0.005-0.589,0.014-0.861,0.283c-0.285,0.281-0.285,0.674-0.285,0.883c0,0.514-0.146,1.122-0.313,1.302
		c-0.248,0.269-0.231,0.688,0.038,0.938c0.127,0.117,0.289,0.176,0.45,0.176C46.711,49.06,46.89,48.988,47.021,48.847z
		 M34.658,45.219l0.384-0.266c0.004-0.003,0.008-0.005,0.012-0.008c1.781-1.291,1.378-3.01,1.055-4.392
		c-0.126-0.538-0.244-1.045-0.244-1.5c0.003-0.892,0.38-1.801,1.009-2.433c1.072-1.073,2.835-1.35,4.101-0.642
		c0.906,0.505,1.269,1.084,1.817,1.959c0.097,0.154,0.196,0.314,0.305,0.481c0.355,0.55,0.86,1.229,1.615,1.602
		c0.862,0.428,2.113,0.453,3.188,0.064c0.345-0.125,0.522-0.506,0.398-0.85c-0.125-0.345-0.505-0.523-0.85-0.398
		c-0.728,0.263-1.61,0.261-2.147-0.006c-0.462-0.229-0.811-0.701-1.09-1.133c-0.104-0.161-0.201-0.316-0.294-0.465
		c-0.586-0.935-1.093-1.743-2.296-2.414c-0.874-0.489-1.937-0.664-2.992-0.493c-1.029,0.166-1.986,0.648-2.694,1.357
		c-0.884,0.888-1.394,2.115-1.396,3.366c-0.001,0.61,0.141,1.219,0.279,1.807c0.334,1.429,0.475,2.274-0.536,3.011l-0.378,0.261
		c-0.301,0.209-0.376,0.622-0.167,0.923c0.129,0.187,0.335,0.286,0.546,0.286C34.411,45.337,34.543,45.299,34.658,45.219z
		 M46.758,37.669c0.355-0.089,0.571-0.449,0.482-0.805c-0.089-0.356-0.449-0.572-0.805-0.483c-0.571,0.143-1.132-0.375-1.346-0.603
		c-0.269-0.287-0.495-0.628-0.734-0.989c-0.12-0.181-0.245-0.369-0.378-0.554c-0.072-0.101-0.141-0.192-0.209-0.277
		c-1.121-1.415-2.806-2.292-4.505-2.346c-1.342-0.042-2.773,0.418-4.021,1.299c-0.3,0.211-0.37,0.625-0.159,0.925
		s0.625,0.371,0.925,0.16c0.999-0.705,2.17-1.091,3.214-1.057c1.294,0.042,2.638,0.748,3.508,1.844
		c0.055,0.069,0.11,0.143,0.171,0.227c0.118,0.165,0.23,0.333,0.35,0.513c0.259,0.391,0.527,0.794,0.871,1.162
		c0.639,0.682,1.387,1.048,2.116,1.048C46.413,37.733,46.587,37.711,46.758,37.669z M33.684,42.418
		c0.453-0.652,0.338-1.517,0.205-2.518c-0.1-0.743-0.211-1.585-0.141-2.526c0.06-0.799,0.522-1.806,1.031-2.244
		c0.278-0.239,0.31-0.658,0.07-0.936c-0.238-0.278-0.658-0.309-0.936-0.07c-0.777,0.668-1.403,1.993-1.49,3.151
		c-0.081,1.078,0.047,2.033,0.149,2.8c0.093,0.697,0.181,1.355,0.021,1.586c-0.21,0.301-0.136,0.714,0.167,0.923
		c0.115,0.08,0.247,0.119,0.378,0.119C33.348,42.703,33.555,42.604,33.684,42.418z M45.643,34.534
		c0.336-0.146,0.489-0.538,0.343-0.873c-0.519-1.192-1.251-2.15-2.06-2.699c-0.304-0.206-0.717-0.126-0.922,0.178
		c-0.206,0.303-0.126,0.716,0.178,0.921c0.595,0.403,1.174,1.179,1.587,2.129c0.109,0.25,0.354,0.398,0.609,0.398
		C45.466,34.589,45.556,34.572,45.643,34.534z M32.194,36.007c0.362-2.626,1.831-4.362,4.49-5.305
		c1.754-0.622,3.666-0.465,5.243,0.431c0.318,0.181,0.724,0.069,0.904-0.249c0.181-0.319,0.069-0.724-0.249-0.905
		c-1.913-1.086-4.224-1.279-6.342-0.527c-3.128,1.108-4.932,3.253-5.361,6.375c-0.05,0.363,0.204,0.698,0.567,0.748
		c0.031,0.004,0.061,0.006,0.091,0.006C31.864,36.58,32.148,36.339,32.194,36.007z M40.019,51c-0.183,0-0.364-0.075-0.495-0.222
		c-0.244-0.274-0.22-0.693,0.054-0.938c0.992-0.884,1.487-1.646,1.927-2.516c0.164-0.327,0.563-0.459,0.891-0.294
		c0.327,0.165,0.459,0.563,0.294,0.892c-0.601,1.19-1.246,2.033-2.229,2.909C40.334,50.944,40.176,51,40.019,51z M35.73,47.658
		c0.67-0.381,1.791-1.02,2.499-2.128c0.821-1.285,0.9-2.891,0.234-4.771c-0.424-1.196-0.294-2.005,0.388-2.403
		c0.289-0.17,0.739-0.336,1.248-0.172c0.471,0.153,0.914,0.564,1.279,1.189c0.786,1.344,1.44,3.844,0.702,6.466
		c-0.1,0.353,0.105,0.72,0.459,0.818c0.353,0.1,0.719-0.105,0.818-0.458c0.852-3.023,0.083-5.928-0.834-7.496
		c-0.532-0.911-1.229-1.527-2.017-1.782c-0.762-0.247-1.588-0.145-2.327,0.289c-0.736,0.432-1.842,1.524-0.968,3.991
		c1.205,3.398-0.808,4.545-2.139,5.304c-0.319,0.182-0.43,0.587-0.249,0.904c0.122,0.215,0.347,0.336,0.577,0.336
		C35.514,47.746,35.627,47.718,35.73,47.658z"/>
</g>
</svg>
