<?xml version="1.0" encoding="utf-8"?>
<!-- Generator: Adobe Illustrator 16.0.3, SVG Export Plug-In . SVG Version: 6.00 Build 0)  -->
<!DOCTYPE svg PUBLIC "-//W3C//DTD SVG 1.1//EN" "http://www.w3.org/Graphics/SVG/1.1/DTD/svg11.dtd">
<svg version="1.1" id="Vrstva_1" xmlns="http://www.w3.org/2000/svg" xmlns:xlink="http://www.w3.org/1999/xlink" x="0px" y="0px"
	 width="22px" height="22px" viewBox="-20 57.5 22 22" enable-background="new -20 57.5 22 22" xml:space="preserve">
<g>
	<defs>
		<rect id="SVGID_1_" x="-20" y="57.5" width="22" height="22"/>
	</defs>
	<clipPath id="SVGID_2_">
		<use xlink:href="#SVGID_1_"  overflow="visible"/>
	</clipPath>
	<path clip-path="url(#SVGID_2_)" fill="#0A77A9" d="M-7.646,72.73v2.031h-2.708V72.73H-7.646z M-3.797,57.5
		c0.391,0,0.794,0.081,1.131,0.31c0.338,0.229,0.544,0.575,0.64,0.874c0.19,0.598,0.122,1.091,0.122,1.566v16.5
		c0,0.475,0.068,0.967-0.122,1.564c-0.096,0.299-0.302,0.648-0.64,0.876c-0.337,0.228-0.74,0.31-1.131,0.31h-10.406
		c-0.391,0-0.794-0.082-1.132-0.31s-0.543-0.577-0.639-0.876c-0.191-0.598-0.122-1.09-0.122-1.564v-16.5
		c0-0.477-0.066-0.97,0.125-1.566c0.095-0.299,0.302-0.646,0.639-0.874c0.337-0.229,0.74-0.31,1.129-0.31H-3.797z M-14.416,77.808
		h10.831c0,0,0.019-18.49,0-18.615h-10.831V77.808z"/>
</g>
</svg>
