<?xml version="1.0" encoding="utf-8"?>
<!-- Generator: Adobe Illustrator 16.0.3, SVG Export Plug-In . SVG Version: 6.00 Build 0)  -->
<!DOCTYPE svg PUBLIC "-//W3C//DTD SVG 1.1//EN" "http://www.w3.org/Graphics/SVG/1.1/DTD/svg11.dtd">
<svg version="1.1" id="Vrstva_1" xmlns="http://www.w3.org/2000/svg" xmlns:xlink="http://www.w3.org/1999/xlink" x="0px" y="0px"
	 width="45px" height="45px" viewBox="0 0 45 45" enable-background="new 0 0 45 45" xml:space="preserve">
<g id="smart_klic">
	<defs>
		<path id="SVGID_1_" d="M45,36.079C45,41.006,41.006,45,36.079,45H8.921C3.994,45,0,41.006,0,36.079V8.921C0,3.994,3.994,0,8.921,0
			h27.158C41.006,0,45,3.994,45,8.921V36.079z"/>
	</defs>
	<clipPath id="SVGID_2_">
		<use xlink:href="#SVGID_1_"  overflow="visible"/>
	</clipPath>
	<g id="bkg_ico" clip-path="url(#SVGID_2_)">
		<path fill="#FFFFFF" d="M8.921,44.5c-4.643,0-8.421-3.778-8.421-8.421V8.921C0.5,4.278,4.278,0.5,8.921,0.5h27.158
			c4.643,0,8.421,3.778,8.421,8.421v27.158c0,4.643-3.778,8.421-8.421,8.421H8.921z"/>
		<path fill="#003366" d="M36.079,1C40.447,1,44,4.553,44,8.921v27.158C44,40.447,40.447,44,36.079,44H8.921
			C4.553,44,1,40.447,1,36.079V8.921C1,4.553,4.553,1,8.921,1H36.079 M36.079,0H8.921C3.994,0,0,3.994,0,8.921v27.158
			C0,41.006,3.994,45,8.921,45h27.158C41.006,45,45,41.006,45,36.079V8.921C45,3.994,41.006,0,36.079,0L36.079,0z"/>
	</g>
	<g id="ico" clip-path="url(#SVGID_2_)">
		<radialGradient id="SVGID_3_" cx="22.1514" cy="24.0439" r="17.9813" gradientUnits="userSpaceOnUse">
			<stop  offset="0" style="stop-color:#88CFEA"/>
			<stop  offset="1" style="stop-color:#0097CB"/>
		</radialGradient>
		<path fill="url(#SVGID_3_)" d="M21.818,39.339c-0.51-0.178-1.037-0.362-1.55-0.534c-0.081-0.027-0.16-0.058-0.237-0.091
			l-3.37,1.125c-0.185,0.062-0.376,0.098-0.568,0.108c-0.957,0.05-1.838-0.551-2.142-1.462L6.076,14.896
			c-0.182-0.543-0.141-1.124,0.115-1.636c0.255-0.512,0.695-0.894,1.237-1.075l11.796-3.938c0.185-0.062,0.376-0.098,0.568-0.108
			c0.958-0.05,1.838,0.551,2.142,1.461l4.691,14.052c0.139-0.064,0.283-0.12,0.43-0.166c0.507-0.157,1.01-0.216,1.492-0.182
			L23.769,8.989c-0.578-1.732-2.255-2.876-4.077-2.78c-0.366,0.02-0.729,0.088-1.079,0.205L6.817,10.352
			c-1.033,0.345-1.87,1.071-2.355,2.045c-0.487,0.975-0.564,2.08-0.22,3.112l7.875,23.589c0.578,1.733,2.254,2.876,4.077,2.781
			c0.366-0.019,0.729-0.088,1.079-0.205l5.745-1.918C22.614,39.617,22.21,39.477,21.818,39.339z M17.281,12.506
			c0.378-0.126,0.545-0.612,0.38-1.107c-0.141-0.42-0.477-0.702-0.817-0.684c-0.053,0.002-0.104,0.013-0.154,0.029l-5.128,1.712
			c-0.151,0.05-0.277,0.163-0.355,0.318c-0.11,0.221-0.12,0.509-0.026,0.789c0.14,0.422,0.477,0.703,0.817,0.686
			c0.052-0.003,0.103-0.013,0.152-0.029L17.281,12.506z M33.898,41.016c0.293-0.076,0.588-0.157,0.874-0.235l0.31-0.085
			c0.061-0.016,0.118-0.04,0.173-0.069c0.337-0.18,0.675-0.359,1.013-0.539l0.155-0.083c0.051-0.027,0.099-0.06,0.144-0.097
			c0.109-0.091,0.219-0.181,0.329-0.27c0.25-0.203,0.507-0.412,0.757-0.642c0.786-0.725,1.375-1.506,1.802-2.39
			c0.28-0.581,0.558-1.216,0.697-1.928c0.224-1.144,0.14-2.227-0.251-3.223c-0.003-0.016-0.005-0.032-0.008-0.048
			c-0.007-0.044-0.015-0.087-0.023-0.13c-0.017-0.077-0.044-0.151-0.081-0.221c-0.118-0.222-0.236-0.443-0.354-0.666
			c-0.069-0.13-0.171-0.239-0.295-0.317c-0.019-0.012-0.038-0.023-0.057-0.034c-0.167-0.165-0.332-0.331-0.497-0.497
			c-0.33-0.333-0.672-0.675-1.02-1.008c-0.389-0.373-0.789-0.744-1.176-1.103c-0.296-0.275-0.593-0.55-0.886-0.827
			c-0.374-0.353-0.745-0.708-1.116-1.063c-0.43-0.412-0.875-0.838-1.319-1.256c-0.264-0.248-0.57-0.493-1.015-0.612
			c-0.256-0.069-0.516-0.097-0.771-0.084c-0.905,0.048-1.671,0.613-1.999,1.395c-0.536-0.272-1.144-0.313-1.795-0.111
			c-0.587,0.183-1.08,0.628-1.351,1.223c-0.005,0.011-0.01,0.021-0.015,0.032c-0.344-0.177-0.735-0.261-1.141-0.24
			c-0.854,0.045-1.609,0.547-1.975,1.271c-0.116-0.111-0.232-0.223-0.349-0.334c-0.213-0.206-0.427-0.411-0.642-0.612
			c-0.212-0.199-0.426-0.396-0.64-0.594c-0.376-0.347-0.765-0.706-1.131-1.066c-0.429-0.421-0.982-0.634-1.643-0.631
			c-0.639,0.002-1.263,0.296-1.697,0.794c-0.42,0.481-0.622,1.102-0.568,1.746c0.038,0.448,0.228,0.903,0.511,1.219
			c0.322,0.359,0.667,0.687,1,1.003c0.143,0.136,0.286,0.271,0.426,0.409c0.12,0.118,0.239,0.237,0.357,0.356
			c0.171,0.172,0.349,0.351,0.53,0.524c0.224,0.215,0.452,0.429,0.673,0.635c0.173,0.162,0.347,0.324,0.519,0.487
			c0.198,0.188,0.394,0.379,0.59,0.569c0.161,0.156,0.322,0.312,0.484,0.468c0.215,0.206,0.431,0.412,0.646,0.617
			c0.37,0.352,0.74,0.704,1.108,1.059c0.033,0.032,0.067,0.065,0.101,0.098c-0.031-0.008-0.062-0.016-0.092-0.023
			c-0.199-0.049-0.398-0.099-0.597-0.146c-0.353-0.085-0.665-0.119-0.954-0.104c-0.695,0.036-1.285,0.366-1.752,0.981
			c-0.342,0.451-0.443,1.093-0.263,1.675c0.169,0.548,0.572,0.965,1.104,1.142c0.523,0.175,1.056,0.361,1.571,0.541
			c0.47,0.165,0.957,0.334,1.438,0.497c0.889,0.3,1.777,0.597,2.666,0.895c1.458,0.488,2.965,0.993,4.442,1.5
			c0.698,0.239,1.39,0.343,2.058,0.308C33.236,41.153,33.57,41.101,33.898,41.016z M21.728,35.3c0.124-0.006,0.283,0.014,0.475,0.06
			c0.196,0.047,0.392,0.096,0.587,0.144c0.479,0.118,0.973,0.241,1.471,0.345c0.133,0.028,0.264,0.038,0.389,0.032
			c0.614-0.032,1.066-0.453,1.207-1.12c0.085-0.392-0.029-0.732-0.34-1.012l-0.015-0.014c-0.226-0.211-0.454-0.436-0.674-0.653
			c-0.162-0.16-0.324-0.32-0.488-0.478c-0.37-0.356-0.742-0.71-1.113-1.064c-0.215-0.205-0.431-0.41-0.645-0.614
			c-0.159-0.153-0.317-0.306-0.476-0.46c-0.2-0.194-0.4-0.388-0.602-0.58c-0.176-0.167-0.353-0.332-0.53-0.498
			c-0.216-0.202-0.44-0.411-0.656-0.618c-0.167-0.161-0.33-0.324-0.502-0.498c-0.124-0.124-0.247-0.248-0.372-0.371
			c-0.146-0.144-0.296-0.286-0.445-0.428c-0.324-0.308-0.63-0.599-0.909-0.908c-0.031-0.035-0.081-0.146-0.089-0.243
			c-0.021-0.244,0.077-0.412,0.163-0.509c0.113-0.13,0.271-0.213,0.422-0.221c0.007,0,0.015,0,0.023,0
			c0.257-0.001,0.372,0.059,0.465,0.151c0.386,0.379,0.784,0.747,1.17,1.103c0.21,0.194,0.42,0.387,0.629,0.584
			c0.211,0.197,0.419,0.397,0.628,0.598c0.153,0.148,0.308,0.296,0.462,0.442c0.296,0.282,0.688,0.654,1.096,1.035
			c0.158,0.145,0.325,0.196,0.405,0.221c0.01,0.003,0.021,0.006,0.035,0.011c0.327,0.125,0.698,0.032,0.927-0.231
			c0.23-0.265,0.271-0.645,0.102-0.951c-0.101-0.183-0.12-0.333-0.07-0.536c0.074-0.3,0.369-0.451,0.612-0.464
			c0.105-0.005,0.257,0.011,0.381,0.12c0.217,0.193,0.437,0.384,0.679,0.594l0.23,0.201c0.271,0.236,0.663,0.272,0.973,0.089
			s0.468-0.543,0.392-0.895c-0.008-0.037-0.014-0.07-0.019-0.1c-0.017-0.1-0.04-0.236-0.104-0.384
			c-0.021-0.048-0.026-0.212,0.056-0.392c0.044-0.096,0.145-0.265,0.328-0.321c0.095-0.03,0.182-0.047,0.26-0.051
			c0.131-0.007,0.279,0.013,0.482,0.199c0.188,0.175,0.382,0.34,0.569,0.5c0.077,0.066,0.154,0.132,0.231,0.199
			c0.264,0.229,0.644,0.27,0.95,0.101c0.307-0.169,0.475-0.511,0.422-0.857c-0.018-0.114-0.038-0.219-0.057-0.32
			c-0.031-0.16-0.06-0.311-0.059-0.416c0.004-0.258,0.23-0.547,0.587-0.566c0.08-0.004,0.165,0.006,0.251,0.028
			c0.076,0.021,0.156,0.078,0.305,0.217c0.437,0.412,0.879,0.834,1.307,1.245c0.374,0.357,0.747,0.715,1.123,1.071
			c0.298,0.281,0.598,0.56,0.898,0.838c0.382,0.354,0.776,0.72,1.156,1.084c0.333,0.319,0.668,0.655,0.992,0.98
			c0.185,0.187,0.371,0.373,0.557,0.557c0.035,0.035,0.07,0.065,0.104,0.091c0.063,0.119,0.127,0.238,0.19,0.356
			c0.015,0.089,0.04,0.207,0.089,0.33c0.281,0.705,0.337,1.458,0.171,2.304c-0.103,0.527-0.332,1.044-0.562,1.523
			c-0.333,0.69-0.801,1.308-1.43,1.887c-0.211,0.195-0.438,0.379-0.678,0.574c-0.093,0.076-0.186,0.152-0.279,0.229l-0.079,0.042
			c-0.311,0.165-0.622,0.331-0.933,0.496l-0.222,0.061c-0.279,0.077-0.568,0.156-0.851,0.229c-0.676,0.175-1.351,0.138-2.092-0.117
			c-1.482-0.509-2.993-1.014-4.453-1.503c-0.887-0.297-1.775-0.594-2.662-0.894c-0.474-0.16-0.956-0.329-1.422-0.491
			c-0.52-0.182-1.058-0.37-1.593-0.549c-0.014-0.005-0.02-0.007-0.031-0.035c-0.028-0.07-0.017-0.162-0.003-0.194
			C21.437,35.338,21.589,35.308,21.728,35.3z"/>
		<linearGradient id="SVGID_4_" gradientUnits="userSpaceOnUse" x1="13.4922" y1="30.4414" x2="22.7236" y2="21.21">
			<stop  offset="0" style="stop-color:#EA621C"/>
			<stop  offset="0.8" style="stop-color:#FBBE0A"/>
		</linearGradient>
		<path fill="url(#SVGID_4_)" d="M12.385,28.058c-0.463-1.991-0.115-3.821,1.034-5.437c1.178-1.655,2.806-2.566,4.838-2.708
			c0.04-0.003,0.079-0.005,0.119-0.007c1.667-0.087,3.28,0.457,4.542,1.53c0.96,0.817,1.66,1.887,1.984,3.004
			c-0.522,0.028-1.017,0.158-1.463,0.37c-0.102-0.033-0.204-0.065-0.306-0.099c-0.119-0.039-0.234-0.136-0.286-0.239
			c-0.304-0.606-0.679-1.097-1.146-1.503c-0.696-0.604-1.514-0.972-2.431-1.092c-0.991-0.129-1.945,0.059-2.806,0.552
			c-1.195,0.686-1.946,1.72-2.232,3.071c-0.29,1.374,0.034,2.663,0.96,3.831c0.632,0.799,1.495,1.321,2.564,1.552
			c0.158,0.035,0.33,0.161,0.411,0.299c0.204,0.356,0.392,0.713,0.59,1.091c0.074,0.141,0.149,0.285,0.227,0.429l0.097,0.182
			l-0.231,0.013C15.893,33.054,13.053,30.928,12.385,28.058z"/>
	</g>
	<g id="Äsob_1_" clip-path="url(#SVGID_2_)">
		<circle id="bkg_logo" fill="#FFFFFF" cx="33.662" cy="11.338" r="7.822"/>
		<g id="logo_1_">
			<path id="text_2_" fill="#003366" d="M30.602,13.126c0,0.713,0.584,0.836,1.011,0.926c0.23,0.048,0.413,0.086,0.413,0.196
				c0,0.114-0.222,0.155-0.429,0.155c-0.315,0-0.648-0.066-0.916-0.181L30.629,14.2v0.811l0.028,0.007
				c0.393,0.093,0.73,0.133,1.125,0.133c0.408,0,1.355-0.095,1.355-0.975c0-0.712-0.588-0.829-1.017-0.914
				c-0.227-0.045-0.406-0.081-0.406-0.185c0-0.13,0.207-0.147,0.409-0.147c0.267,0,0.541,0.048,0.79,0.138l0.049,0.018v-0.8
				l-0.029-0.006c-0.295-0.063-0.616-0.097-0.904-0.097C31.083,12.183,30.602,12.5,30.602,13.126z M33.223,13.667
				c0,0.957,0.546,1.484,1.538,1.484c0.999,0,1.549-0.527,1.549-1.484c0-0.942-0.564-1.483-1.549-1.483
				C33.783,12.183,33.223,12.724,33.223,13.667z M34.383,13.667c0-0.488,0.127-0.736,0.378-0.736c0.34,0,0.385,0.421,0.39,0.737
				c-0.004,0.355-0.039,0.736-0.39,0.736C34.506,14.403,34.383,14.162,34.383,13.667z M36.529,12.231h-0.037v2.871H38.1
				c0.597,0,1.149-0.099,1.149-0.814c0-0.258-0.194-0.549-0.523-0.646c0.321-0.119,0.473-0.338,0.473-0.684
				c0-0.468-0.344-0.726-0.968-0.726H36.529z M37.786,13.952c0.246,0,0.351,0.074,0.351,0.248c0,0.233-0.274,0.251-0.359,0.251
				c0,0-0.179,0-0.234,0c0-0.06,0-0.438,0-0.499C37.599,13.952,37.786,13.952,37.786,13.952z M37.79,12.834
				c0.212,0,0.32,0.08,0.32,0.236c0,0.191-0.187,0.231-0.343,0.231c0,0-0.169,0-0.223,0c0-0.06,0-0.408,0-0.467
				C37.599,12.834,37.79,12.834,37.79,12.834z M28.923,11.72l-0.324,0.298l0.024,0.021c0.008,0.007,0.19,0.159,0.485,0.24
				c-0.649,0.193-1.034,0.69-1.034,1.348c0,0.935,0.632,1.515,1.649,1.515c0.335,0,0.661-0.086,0.752-0.113l0.02-0.006V14.22
				l-0.038,0.014c-0.203,0.073-0.378,0.106-0.553,0.106c-0.446,0-0.712-0.261-0.712-0.697c0-0.415,0.286-0.673,0.748-0.673
				c0.174,0,0.348,0.049,0.511,0.103l0.037,0.013v-0.8L30.41,12.27c-0.139-0.026-0.257-0.048-0.381-0.062
				c0.225-0.1,0.374-0.236,0.447-0.315l0.021-0.023l-0.125-0.095l-0.017,0.019c-0.002,0.002-0.234,0.252-0.666,0.248
				c-0.457-0.005-0.724-0.317-0.726-0.32l-0.02-0.022L28.923,11.72z"/>
			<path id="plavec_2_" fill="#0099CC" d="M31.826,8.294c0-1.042,0.843-1.886,1.882-1.886s1.882,0.845,1.882,1.886
				s-0.843,1.886-1.882,1.886S31.826,9.335,31.826,8.294z M35.096,9.82c-0.358,0.39-0.99,0.779-1.802,0.779
				c-0.629,0-1.171-0.245-1.516-0.518c-2.054,0.216-3.582,0.522-3.582,0.522v0.833l10.888-0.001l0.001-1.719
				C39.085,9.717,37.228,9.706,35.096,9.82z"/>
		</g>
	</g>
</g>
</svg>
