<svg width="60" height="60" viewBox="0 0 60 60" fill="none" xmlns="http://www.w3.org/2000/svg">
<path d="M44.6051 30.6274C44.1793 29.8515 43.1116 29.2203 42.1526 29.2203C40.9081 29.2203 39.5103 29.8611 39.5103 31.3463C39.5103 32.8314 40.9081 33.4722 42.1526 33.4722C43.4887 33.4722 44.7949 34.1129 44.7949 35.5981C44.7949 37.0833 43.3971 37.7163 42.1526 37.724C41.1483 37.7303 40.039 37.3857 39.6369 36.4294" stroke="#003366" stroke-width="1.7" stroke-linecap="round" stroke-linejoin="round"/>
<path d="M42.1367 28.1572V29.2202" stroke="#003366" stroke-width="1.7" stroke-linecap="round" stroke-linejoin="round"/>
<path d="M42.1367 37.7241V38.7871" stroke="#003366" stroke-width="1.7" stroke-linecap="round" stroke-linejoin="round"/>
<ellipse cx="42.1369" cy="33.4726" rx="9.30093" ry="9.30093" stroke="#003366" stroke-width="1.7" stroke-linecap="round" stroke-linejoin="round"/>
<path d="M27.6763 14.6742C27.5683 14.3723 27.4027 14.0962 27.1897 13.8626C26.9766 13.629 26.7203 13.4427 26.4363 13.3149C26.1523 13.187 25.8465 13.1203 25.5371 13.1187C25.2277 13.1171 24.9212 13.1807 24.636 13.3056C24.2491 13.4239 23.9158 13.6826 23.6963 14.0348C23.4769 14.3871 23.3857 14.8096 23.4395 15.2257C23.4813 15.5257 23.5536 15.8201 23.6553 16.1041C24.3623 18.0062 24.2859 19.74 23.0057 21.038C22.5522 21.4978 22.2761 21.665 22.922 21.665C23.7116 21.665 25.2017 21.665 27.9478 21.665" stroke="#003366" stroke-width="1.7" stroke-linecap="round" stroke-linejoin="round"/>
<path d="M22.2402 17.5886H25.5016" stroke="#003366" stroke-width="1.7" stroke-linecap="round" stroke-linejoin="round"/>
<ellipse cx="24.8634" cy="17.5277" rx="9.30093" ry="9.30093" stroke="#003366" stroke-width="1.7" stroke-linecap="round" stroke-linejoin="round"/>
<rect x="14.0049" y="26.7937" width="19" height="13" rx="2" transform="rotate(40.9121 14.0049 26.7937)" stroke="#003366" stroke-width="1.7" stroke-linecap="round" stroke-linejoin="round"/>
<path d="M11.3857 29.8167L25.3665 41.9323M17.6585 43.1921L19.1699 44.5019" stroke="#003366" stroke-width="1.7" stroke-linecap="round" stroke-linejoin="round"/>
</svg>
