<?xml version="1.0" encoding="utf-8"?>
<!-- Generator: Adobe Illustrator 16.0.3, SVG Export Plug-In . SVG Version: 6.00 Build 0)  -->
<!DOCTYPE svg PUBLIC "-//W3C//DTD SVG 1.1//EN" "http://www.w3.org/Graphics/SVG/1.1/DTD/svg11.dtd">
<svg version="1.1" id="Vrstva_1" xmlns="http://www.w3.org/2000/svg" xmlns:xlink="http://www.w3.org/1999/xlink" x="0px" y="0px"
	 width="22px" height="22px" viewBox="0 0 22 22" enable-background="new 0 0 22 22" xml:space="preserve">
<g>
	<defs>
		<rect id="SVGID_1_" width="22" height="22"/>
	</defs>
	<clipPath id="SVGID_2_">
		<use xlink:href="#SVGID_1_"  overflow="visible"/>
	</clipPath>
	<path clip-path="url(#SVGID_2_)" fill="#0A77A9" d="M11,2.979c4.423,0,8.021,3.598,8.021,8.021S15.423,19.021,11,19.021
		S2.979,15.423,2.979,11S6.577,2.979,11,2.979 M11,1.354c-5.328,0-9.646,4.318-9.646,9.646S5.672,20.646,11,20.646
		s9.646-4.318,9.646-9.646S16.328,1.354,11,1.354L11,1.354z M10.39,14.813c0.25-0.005,0.485-0.121,0.642-0.315l4.544-5.639
		c0.293-0.364,0.236-0.896-0.128-1.189c-0.364-0.293-0.896-0.236-1.189,0.127l-3.913,4.854L7.769,9.708
		C7.461,9.356,6.927,9.32,6.575,9.628c-0.352,0.308-0.387,0.842-0.08,1.194l3.24,3.703c0.161,0.184,0.393,0.289,0.637,0.289
		C10.378,14.813,10.384,14.813,10.39,14.813z"/>
</g>
</svg>
