<?xml version="1.0" encoding="utf-8"?>
<!-- Generator: Adobe Illustrator 16.0.3, SVG Export Plug-In . SVG Version: 6.00 Build 0)  -->
<!DOCTYPE svg PUBLIC "-//W3C//DTD SVG 1.1//EN" "http://www.w3.org/Graphics/SVG/1.1/DTD/svg11.dtd">
<svg version="1.1" id="Vrstva_1" xmlns="http://www.w3.org/2000/svg" xmlns:xlink="http://www.w3.org/1999/xlink" x="0px" y="0px"
	 width="45px" height="45px" viewBox="0 0 45 45" enable-background="new 0 0 45 45" xml:space="preserve">
<g id="smart_klic">
	<defs>
		<path id="SVGID_1_" d="M45,36.079C45,41.006,41.006,45,36.079,45H8.921C3.994,45,0,41.006,0,36.079V8.921C0,3.994,3.994,0,8.921,0
			h27.158C41.006,0,45,3.994,45,8.921V36.079z"/>
	</defs>
	<clipPath id="SVGID_2_">
		<use xlink:href="#SVGID_1_"  overflow="visible"/>
	</clipPath>
	<g id="bkg_ico" clip-path="url(#SVGID_2_)">
		<path fill="#283960" d="M45,36.079C45,41.006,41.006,45,36.079,45H8.921C3.994,45,0,41.006,0,36.079V8.921
			C0,3.994,3.994,0,8.921,0h27.158C41.006,0,45,3.994,45,8.921V36.079z"/>
	</g>
	<path id="Äsob_1_" clip-path="url(#SVGID_2_)" fill="#FFFFFF" d="M14.559,28.091c0,1.852,1.515,2.169,2.623,2.402
		c0.597,0.125,1.071,0.225,1.071,0.509c0,0.297-0.576,0.403-1.113,0.403c-0.816,0-1.683-0.171-2.376-0.47l-0.135-0.059v2.104
		l0.074,0.018c1.02,0.242,1.894,0.346,2.921,0.346c1.058,0,3.517-0.245,3.517-2.528c0-1.848-1.526-2.151-2.639-2.371
		c-0.589-0.116-1.055-0.209-1.055-0.479c0-0.337,0.536-0.383,1.062-0.383c0.693,0,1.402,0.126,2.05,0.359l0.128,0.047v-2.076
		l-0.075-0.017c-0.765-0.162-1.597-0.252-2.345-0.252C15.805,25.644,14.559,26.467,14.559,28.091z M21.361,29.493
		c0,2.484,1.417,3.851,3.99,3.851c2.592,0,4.019-1.366,4.019-3.851c0-2.445-1.463-3.85-4.019-3.85
		C22.814,25.644,21.361,27.048,21.361,29.493z M24.37,29.493c0-1.268,0.33-1.911,0.981-1.911c0.882,0,1,1.093,1.012,1.914
		c-0.012,0.923-0.101,1.909-1.012,1.909C24.691,31.405,24.37,30.779,24.37,29.493z M29.94,25.769h-0.094v7.45h4.171
		c1.548,0,2.983-0.257,2.983-2.112c0-0.669-0.503-1.426-1.358-1.678c0.834-0.308,1.228-0.877,1.228-1.775
		c0-1.216-0.892-1.885-2.512-1.885H29.94z M33.201,30.234c0.639,0,0.911,0.192,0.911,0.643c0,0.605-0.712,0.652-0.931,0.652
		c0,0-0.466,0-0.608,0c0-0.155,0-1.138,0-1.295C32.717,30.234,33.201,30.234,33.201,30.234z M33.211,27.333
		c0.552,0,0.83,0.206,0.83,0.612c0,0.496-0.483,0.601-0.89,0.601c0,0-0.438,0-0.579,0c0-0.155,0-1.059,0-1.213
		C32.717,27.333,33.211,27.333,33.211,27.333z M10.201,24.44l-0.84,0.773l0.062,0.055c0.021,0.019,0.493,0.413,1.259,0.623
		C8.997,26.392,8,27.681,8,29.39c0,2.425,1.64,3.932,4.279,3.932c0.87,0,1.715-0.225,1.953-0.294l0.052-0.016V30.93l-0.098,0.035
		c-0.526,0.188-0.982,0.276-1.435,0.276c-1.158,0-1.849-0.677-1.849-1.81c0-1.078,0.743-1.747,1.94-1.747
		c0.452,0,0.904,0.129,1.325,0.267l0.095,0.033v-2.076l-0.203-0.039c-0.361-0.066-0.667-0.124-0.99-0.159
		c0.584-0.259,0.97-0.612,1.16-0.818l0.056-0.059l-0.323-0.246l-0.044,0.049c-0.006,0.007-0.608,0.655-1.727,0.645
		c-1.186-0.013-1.879-0.822-1.884-0.831l-0.051-0.059L10.201,24.44z M17.736,15.551c0-2.703,2.187-4.895,4.883-4.895
		c2.697,0,4.884,2.191,4.884,4.895c0,2.702-2.187,4.895-4.884,4.895C19.923,20.445,17.736,18.253,17.736,15.551z M26.22,19.511
		c-0.93,1.012-2.569,2.022-4.675,2.022c-1.634,0-3.039-0.636-3.935-1.344c-5.331,0.561-9.296,1.356-9.296,1.356v2.163l28.256-0.003
		l0.003-4.462C36.573,19.244,31.752,19.214,26.22,19.511z"/>
</g>
</svg>
