<svg width="70" height="70" viewBox="0 0 70 70" fill="none" xmlns="http://www.w3.org/2000/svg">
<rect x="26" y="20" width="3" height="4" stroke="#0A77A9" stroke-width="2" stroke-linecap="round" stroke-linejoin="round"/>
<rect x="26" y="27" width="3" height="4" stroke="#0A77A9" stroke-width="2" stroke-linecap="round" stroke-linejoin="round"/>
<rect x="26" y="34" width="3" height="4" stroke="#0A77A9" stroke-width="2" stroke-linecap="round" stroke-linejoin="round"/>
<rect x="26" y="41" width="3" height="4" stroke="#0A77A9" stroke-width="2" stroke-linecap="round" stroke-linejoin="round"/>
<rect x="33" y="20" width="3" height="4" stroke="#0A77A9" stroke-width="2" stroke-linecap="round" stroke-linejoin="round"/>
<rect x="33" y="27" width="3" height="4" stroke="#0A77A9" stroke-width="2" stroke-linecap="round" stroke-linejoin="round"/>
<rect x="33" y="34" width="3" height="4" stroke="#0A77A9" stroke-width="2" stroke-linecap="round" stroke-linejoin="round"/>
<rect x="33" y="41" width="3" height="4" stroke="#0A77A9" stroke-width="2" stroke-linecap="round" stroke-linejoin="round"/>
<rect x="32" y="48" width="5" height="8" stroke="#0A77A9" stroke-width="2" stroke-linecap="round" stroke-linejoin="round"/>
<rect x="40" y="20" width="3" height="4" stroke="#0A77A9" stroke-width="2" stroke-linecap="round" stroke-linejoin="round"/>
<rect x="40" y="27" width="3" height="4" stroke="#0A77A9" stroke-width="2" stroke-linecap="round" stroke-linejoin="round"/>
<rect x="40" y="34" width="3" height="4" stroke="#0A77A9" stroke-width="2" stroke-linecap="round" stroke-linejoin="round"/>
<rect x="40" y="41" width="3" height="4" stroke="#0A77A9" stroke-width="2" stroke-linecap="round" stroke-linejoin="round"/>
<rect x="27" y="11" width="15" height="5" stroke="#0A77A9" stroke-width="2" stroke-linecap="round" stroke-linejoin="round"/>
<rect x="10" y="56" width="50" height="3" stroke="#0A77A9" stroke-width="2" stroke-linecap="round" stroke-linejoin="round"/>
<rect x="23" y="16" width="23" height="40" stroke="#0A77A9" stroke-width="2" stroke-linecap="round" stroke-linejoin="round"/>
<circle cx="16" cy="47" r="4" stroke="#0A77A9" stroke-width="2" stroke-linecap="round" stroke-linejoin="round"/>
<path d="M16 51V55.5" stroke="#0A77A9" stroke-width="2" stroke-linecap="round" stroke-linejoin="round"/>
<circle cx="16" cy="47" r="4" stroke="#0A77A9" stroke-width="2" stroke-linecap="round" stroke-linejoin="round"/>
<path d="M53 51V55.5" stroke="#0A77A9" stroke-width="2" stroke-linecap="round" stroke-linejoin="round"/>
<circle cx="53" cy="47" r="4" stroke="#0A77A9" stroke-width="2" stroke-linecap="round" stroke-linejoin="round"/>
</svg>
