<?xml version="1.0" encoding="utf-8"?>
<!-- Generator: Adobe Illustrator 16.0.3, SVG Export Plug-In . SVG Version: 6.00 Build 0)  -->
<!DOCTYPE svg PUBLIC "-//W3C//DTD SVG 1.1//EN" "http://www.w3.org/Graphics/SVG/1.1/DTD/svg11.dtd">
<svg version="1.1" id="Vrstva_1" xmlns="http://www.w3.org/2000/svg" xmlns:xlink="http://www.w3.org/1999/xlink" x="0px" y="0px"
	 width="45px" height="45px" viewBox="0 0 45 45" enable-background="new 0 0 45 45" xml:space="preserve">
<g id="smart_klic">
	<defs>
		<path id="SVGID_1_" d="M45,36.079C45,41.006,41.006,45,36.079,45H8.921C3.994,45,0,41.006,0,36.079V8.921C0,3.994,3.994,0,8.921,0
			h27.158C41.006,0,45,3.994,45,8.921V36.079z"/>
	</defs>
	<clipPath id="SVGID_2_">
		<use xlink:href="#SVGID_1_"  overflow="visible"/>
	</clipPath>
	<g id="bkg_ico" clip-path="url(#SVGID_2_)">
		<path fill="#FFFFFF" d="M8.921,44.5c-4.643,0-8.421-3.778-8.421-8.421V8.921C0.5,4.278,4.278,0.5,8.921,0.5h27.158
			c4.643,0,8.421,3.778,8.421,8.421v27.158c0,4.643-3.778,8.421-8.421,8.421H8.921z"/>
		<path fill="#003366" d="M36.079,1C40.447,1,44,4.553,44,8.921v27.158C44,40.447,40.447,44,36.079,44H8.921
			C4.553,44,1,40.447,1,36.079V8.921C1,4.553,4.553,1,8.921,1H36.079 M36.079,0H8.921C3.994,0,0,3.994,0,8.921v27.158
			C0,41.006,3.994,45,8.921,45h27.158C41.006,45,45,41.006,45,36.079V8.921C45,3.994,41.006,0,36.079,0L36.079,0z"/>
	</g>
	<g id="ico_smart_klic" clip-path="url(#SVGID_2_)">
		<radialGradient id="SVGID_3_" cx="17.0508" cy="23.9639" r="14.0388" gradientUnits="userSpaceOnUse">
			<stop  offset="0" style="stop-color:#75E6FE"/>
			<stop  offset="1" style="stop-color:#0199CC"/>
		</radialGradient>
		<path fill="url(#SVGID_3_)" d="M17.759,27.144c-0.432,0-0.817-0.305-0.904-0.744c-0.169-0.855-0.445-1.599-0.843-2.273
			c-0.26-0.438-0.114-1.004,0.325-1.264c0.438-0.259,1.004-0.114,1.264,0.325c0.506,0.857,0.855,1.791,1.065,2.854
			c0.099,0.5-0.226,0.986-0.726,1.084C17.878,27.138,17.818,27.144,17.759,27.144z M13.826,37.303
			c2.3-1.609,3.896-3.672,4.613-5.966c0.263-0.839,0.413-1.723,0.445-2.625c0.018-0.509-0.38-0.937-0.89-0.955
			c-0.509-0.02-0.937,0.38-0.955,0.89c-0.026,0.737-0.147,1.457-0.361,2.139c-0.751,2.402-2.541,4.048-3.91,5.005
			c-0.417,0.292-0.519,0.868-0.227,1.285c0.18,0.257,0.466,0.394,0.757,0.394C13.48,37.47,13.665,37.416,13.826,37.303z
			 M28.846,27.244c0.488-0.148,0.763-0.664,0.615-1.151c-0.148-0.487-0.663-0.763-1.151-0.615c-1.697,0.515-2.938,0.524-4.15,0.031
			c-0.472-0.192-1.011,0.035-1.203,0.507c-0.192,0.472,0.035,1.01,0.506,1.203c0.897,0.365,1.76,0.499,2.567,0.499
			C27.085,27.717,28.042,27.488,28.846,27.244z M22.012,38.96c0.917-0.918,3.327-3.329,3.14-8.304
			c1.133,0.193,2.697,0.194,4.015-0.339c0.473-0.191,0.701-0.729,0.51-1.202c-0.191-0.472-0.729-0.701-1.202-0.509
			c-1.056,0.427-2.407,0.368-3.244,0.187c-0.49-0.106-0.989,0.019-1.369,0.343c-0.39,0.333-0.596,0.824-0.566,1.346
			c0.244,4.339-1.742,6.326-2.59,7.174c-0.36,0.36-0.36,0.945,0,1.305c0.18,0.18,0.416,0.271,0.652,0.271S21.831,39.14,22.012,38.96
			z M26.814,36.301c0.755-0.817,0.893-2.278,0.918-2.847c0.242-0.012,0.512-0.044,0.848-0.141c0.49-0.14,0.773-0.651,0.633-1.141
			c-0.14-0.49-0.651-0.774-1.141-0.633c-0.206,0.059-0.347,0.071-0.585,0.077c-0.306,0.007-0.818,0.019-1.198,0.394
			c-0.397,0.392-0.397,0.937-0.397,1.229c0,0.714-0.203,1.56-0.433,1.81c-0.346,0.375-0.323,0.958,0.051,1.304
			c0.178,0.164,0.402,0.245,0.626,0.245C26.385,36.598,26.633,36.498,26.814,36.301z M9.621,31.255l0.534-0.369
			c0.005-0.004,0.011-0.008,0.016-0.012c2.477-1.795,1.917-4.187,1.467-6.108c-0.175-0.748-0.34-1.454-0.339-2.086
			c0.002-1.24,0.527-2.504,1.402-3.383c1.491-1.493,3.943-1.877,5.704-0.894c1.26,0.704,1.765,1.508,2.528,2.727
			c0.134,0.214,0.274,0.437,0.424,0.668c0.495,0.765,1.197,1.708,2.246,2.228c1.2,0.594,2.94,0.629,4.434,0.089
			c0.479-0.173,0.728-0.703,0.554-1.182c-0.173-0.479-0.702-0.728-1.182-0.554c-1.011,0.366-2.239,0.363-2.987-0.007
			c-0.642-0.318-1.126-0.975-1.515-1.576c-0.145-0.224-0.28-0.439-0.41-0.646c-0.815-1.3-1.519-2.424-3.192-3.357
			c-1.216-0.68-2.694-0.923-4.163-0.686c-1.432,0.231-2.763,0.901-3.748,1.887c-1.23,1.234-1.938,2.941-1.941,4.683
			c-0.002,0.848,0.196,1.693,0.388,2.511c0.465,1.987,0.66,3.163-0.746,4.187L8.57,29.738c-0.419,0.29-0.523,0.865-0.233,1.284
			c0.179,0.259,0.467,0.398,0.759,0.398C9.277,31.42,9.46,31.367,9.621,31.255z M26.45,20.754c0.495-0.124,0.795-0.625,0.671-1.12
			c-0.124-0.494-0.625-0.795-1.12-0.671c-0.795,0.198-1.574-0.521-1.872-0.839c-0.373-0.399-0.688-0.874-1.021-1.376
			c-0.167-0.252-0.34-0.513-0.525-0.77c-0.101-0.141-0.196-0.267-0.29-0.385c-1.561-1.967-3.903-3.187-6.267-3.263
			c-1.867-0.058-3.857,0.582-5.593,1.807c-0.417,0.294-0.516,0.87-0.222,1.286c0.293,0.417,0.869,0.516,1.286,0.222
			c1.39-0.98,3.02-1.518,4.47-1.47c1.8,0.057,3.669,1.04,4.879,2.564c0.076,0.096,0.154,0.199,0.238,0.316
			c0.164,0.228,0.32,0.463,0.486,0.712c0.36,0.543,0.733,1.105,1.211,1.617c0.889,0.949,1.93,1.457,2.944,1.457
			C25.97,20.843,26.212,20.814,26.45,20.754z M8.265,27.359c0.63-0.908,0.47-2.109,0.285-3.501
			c-0.137-1.033-0.293-2.205-0.196-3.514c0.083-1.111,0.727-2.511,1.435-3.121c0.386-0.333,0.43-0.916,0.098-1.302
			s-0.916-0.43-1.301-0.098c-1.081,0.93-1.952,2.773-2.072,4.383c-0.112,1.5,0.065,2.828,0.207,3.895
			c0.129,0.969,0.25,1.885,0.028,2.205C6.458,26.725,6.562,27.3,6.98,27.591c0.161,0.111,0.344,0.165,0.526,0.165
			C7.798,27.756,8.086,27.617,8.265,27.359z M24.898,16.395c0.467-0.204,0.681-0.748,0.478-1.215
			c-0.722-1.658-1.74-2.991-2.866-3.753c-0.422-0.286-0.996-0.175-1.282,0.247c-0.286,0.422-0.175,0.996,0.247,1.282
			c0.828,0.561,1.633,1.64,2.208,2.961c0.151,0.348,0.491,0.555,0.847,0.555C24.653,16.471,24.778,16.446,24.898,16.395z
			 M6.195,18.443c0.502-3.653,2.544-6.067,6.244-7.378c2.44-0.866,5.098-0.647,7.292,0.599c0.443,0.252,1.006,0.097,1.258-0.347
			c0.251-0.443,0.096-1.006-0.347-1.258c-2.66-1.511-5.875-1.778-8.821-0.733c-4.351,1.542-6.859,4.525-7.455,8.867
			c-0.069,0.505,0.284,0.971,0.789,1.04c0.043,0.006,0.085,0.008,0.127,0.008C5.736,19.24,6.132,18.905,6.195,18.443z"/>
		<linearGradient id="SVGID_4_" gradientUnits="userSpaceOnUse" x1="15.9829" y1="39.2959" x2="15.9829" y2="19.5332">
			<stop  offset="0" style="stop-color:#FF6000"/>
			<stop  offset="0.8" style="stop-color:#FFC000"/>
		</linearGradient>
		<path fill="url(#SVGID_4_)" d="M17.077,39.296c-0.254,0-0.507-0.104-0.689-0.309c-0.339-0.38-0.306-0.963,0.075-1.303
			c1.379-1.229,2.069-2.288,2.679-3.499c0.229-0.455,0.785-0.638,1.24-0.409c0.455,0.229,0.638,0.785,0.409,1.24
			c-0.834,1.656-1.732,2.828-3.099,4.046C17.514,39.219,17.295,39.296,17.077,39.296z M11.111,34.649
			c0.932-0.531,2.492-1.419,3.476-2.96c1.143-1.789,1.253-4.021,0.326-6.636c-0.589-1.663-0.408-2.788,0.539-3.343
			c0.401-0.235,1.028-0.467,1.735-0.238c0.657,0.213,1.272,0.785,1.78,1.654c1.093,1.869,2.004,5.346,0.977,8.994
			c-0.138,0.491,0.147,1,0.638,1.139c0.49,0.138,1-0.147,1.139-0.638c1.185-4.205,0.115-8.244-1.16-10.425
			c-0.74-1.267-1.71-2.124-2.805-2.478c-1.059-0.343-2.208-0.201-3.237,0.401c-1.024,0.601-2.562,2.12-1.346,5.552
			c1.675,4.727-1.124,6.321-2.976,7.376c-0.443,0.252-0.597,0.816-0.345,1.259c0.17,0.299,0.482,0.466,0.803,0.466
			C10.81,34.77,10.967,34.731,11.111,34.649z"/>
	</g>
	<g id="Äsob_1_" clip-path="url(#SVGID_2_)">
		<circle id="bkg_logo" fill="#FFFFFF" cx="33.662" cy="11.338" r="7.822"/>
		<g id="logo_1_">
			<path id="text_2_" fill="#003366" d="M30.602,13.126c0,0.713,0.584,0.836,1.011,0.926c0.23,0.048,0.413,0.086,0.413,0.196
				c0,0.114-0.222,0.155-0.429,0.155c-0.315,0-0.648-0.066-0.916-0.181L30.629,14.2v0.811l0.028,0.007
				c0.393,0.093,0.73,0.133,1.125,0.133c0.408,0,1.355-0.095,1.355-0.975c0-0.712-0.588-0.829-1.017-0.914
				c-0.227-0.045-0.406-0.081-0.406-0.185c0-0.13,0.207-0.147,0.409-0.147c0.267,0,0.541,0.048,0.79,0.138l0.049,0.018v-0.8
				l-0.029-0.006c-0.295-0.063-0.616-0.097-0.904-0.097C31.083,12.183,30.602,12.5,30.602,13.126z M33.223,13.667
				c0,0.957,0.546,1.484,1.538,1.484c0.999,0,1.549-0.527,1.549-1.484c0-0.942-0.564-1.483-1.549-1.483
				C33.783,12.183,33.223,12.724,33.223,13.667z M34.383,13.667c0-0.488,0.127-0.736,0.378-0.736c0.34,0,0.385,0.421,0.39,0.737
				c-0.004,0.355-0.039,0.736-0.39,0.736C34.506,14.403,34.383,14.162,34.383,13.667z M36.529,12.231h-0.037v2.871H38.1
				c0.597,0,1.149-0.099,1.149-0.814c0-0.258-0.194-0.549-0.523-0.646c0.321-0.119,0.473-0.338,0.473-0.684
				c0-0.468-0.344-0.726-0.968-0.726H36.529z M37.786,13.952c0.246,0,0.351,0.074,0.351,0.248c0,0.233-0.274,0.251-0.359,0.251
				c0,0-0.179,0-0.234,0c0-0.06,0-0.438,0-0.499C37.599,13.952,37.786,13.952,37.786,13.952z M37.79,12.834
				c0.212,0,0.32,0.08,0.32,0.236c0,0.191-0.187,0.231-0.343,0.231c0,0-0.169,0-0.223,0c0-0.06,0-0.408,0-0.467
				C37.599,12.834,37.79,12.834,37.79,12.834z M28.923,11.72l-0.324,0.298l0.024,0.021c0.008,0.007,0.19,0.159,0.485,0.24
				c-0.649,0.193-1.034,0.69-1.034,1.348c0,0.935,0.632,1.515,1.649,1.515c0.335,0,0.661-0.086,0.752-0.113l0.02-0.006V14.22
				l-0.038,0.014c-0.203,0.073-0.378,0.106-0.553,0.106c-0.446,0-0.712-0.261-0.712-0.697c0-0.415,0.286-0.673,0.748-0.673
				c0.174,0,0.348,0.049,0.511,0.103l0.037,0.013v-0.8L30.41,12.27c-0.139-0.026-0.257-0.048-0.381-0.062
				c0.225-0.1,0.374-0.236,0.447-0.315l0.021-0.023l-0.125-0.095l-0.017,0.019c-0.002,0.002-0.234,0.252-0.666,0.248
				c-0.457-0.005-0.724-0.317-0.726-0.32l-0.02-0.022L28.923,11.72z"/>
			<path id="plavec_2_" fill="#0099CC" d="M31.826,8.294c0-1.042,0.843-1.886,1.882-1.886s1.882,0.845,1.882,1.886
				s-0.843,1.886-1.882,1.886S31.826,9.335,31.826,8.294z M35.096,9.82c-0.358,0.39-0.99,0.779-1.802,0.779
				c-0.629,0-1.171-0.245-1.516-0.518c-2.054,0.216-3.582,0.522-3.582,0.522v0.833l10.888-0.001l0.001-1.719
				C39.085,9.717,37.228,9.706,35.096,9.82z"/>
		</g>
	</g>
</g>
</svg>
