<?xml version="1.0" encoding="utf-8"?>
<!-- Generator: Adobe Illustrator 16.0.3, SVG Export Plug-In . SVG Version: 6.00 Build 0)  -->
<!DOCTYPE svg PUBLIC "-//W3C//DTD SVG 1.1//EN" "http://www.w3.org/Graphics/SVG/1.1/DTD/svg11.dtd" [
	<!ENTITY ns_extend "http://ns.adobe.com/Extensibility/1.0/">
	<!ENTITY ns_ai "http://ns.adobe.com/AdobeIllustrator/10.0/">
	<!ENTITY ns_graphs "http://ns.adobe.com/Graphs/1.0/">
	<!ENTITY ns_vars "http://ns.adobe.com/Variables/1.0/">
	<!ENTITY ns_imrep "http://ns.adobe.com/ImageReplacement/1.0/">
	<!ENTITY ns_sfw "http://ns.adobe.com/SaveForWeb/1.0/">
	<!ENTITY ns_custom "http://ns.adobe.com/GenericCustomNamespace/1.0/">
	<!ENTITY ns_adobe_xpath "http://ns.adobe.com/XPath/1.0/">
]>
<svg version="1.1" id="Vrstva_1" xmlns:x="&ns_extend;" xmlns:i="&ns_ai;" xmlns:graph="&ns_graphs;"
	 xmlns="http://www.w3.org/2000/svg" xmlns:xlink="http://www.w3.org/1999/xlink" x="0px" y="0px" width="80px" height="80px"
	 viewBox="0 0 80 80" enable-background="new 0 0 80 80" xml:space="preserve">
<metadata>
	<sfw  xmlns="&ns_sfw;">
		<slices></slices>
		<sliceSourceBounds  height="80" width="80" bottomLeftOrigin="true" y="-22.5" x="-22.5"></sliceSourceBounds>
		<optimizationSettings>
			<targetSettings  targetSettingsID="0" fileFormat="PNG24Format">
				<PNG24Format  transparency="true" filtered="false" matteColor="#FFFFFF" noMatteColor="false" interlaced="false">
					</PNG24Format>
			</targetSettings>
		</optimizationSettings>
	</sfw>
</metadata>
<g>
	<g>
		<defs>
			<rect id="SVGID_1_" width="80" height="80"/>
		</defs>
		<clipPath id="SVGID_2_">
			<use xlink:href="#SVGID_1_"  overflow="visible"/>
		</clipPath>
		<path clip-path="url(#SVGID_2_)" fill="#003366" d="M38.974,59.809c0,0.553-0.448,1-1,1h-4.17c-0.552,0-1-0.447-1-1s0.448-1,1-1
			h4.17C38.526,58.809,38.974,59.256,38.974,59.809z M41.102,18.149H30.675c-0.552,0-1,0.448-1,1c0,0.552,0.448,1,1,1H41.1
			c0.553,0,1-0.448,1-1C42.1,18.597,41.652,18.149,41.102,18.149z M51.75,58c-0.413,0-0.816-0.036-1.225-0.063v2.912
			c0,2.323-1.889,4.213-4.213,4.213h-20.85c-2.323,0-4.213-1.89-4.213-4.213V19.149c0-2.323,1.89-4.213,4.213-4.213h20.852
			c2.322,0,4.213,1.89,4.213,4.213v0.913C50.934,20.036,51.337,20,51.75,20c0.262,0,0.518,0.029,0.775,0.039v-0.89
			c0-3.426-2.787-6.213-6.213-6.213h-20.85c-3.426,0-6.213,2.787-6.213,6.213v41.703c0,3.426,2.787,6.213,6.213,6.213h20.852
			c3.426,0,6.213-2.787,6.213-6.213v-2.891C52.268,57.973,52.012,58,51.75,58z M51.75,22c-9.374,0-17,7.626-17,17s7.626,17,17,17
			s17-7.626,17-17S61.124,22,51.75,22z M51.75,54c-8.271,0-15-6.729-15-15c0-8.271,6.729-15,15-15s15,6.729,15,15
			C66.75,47.271,60.021,54,51.75,54z M45.086,33.823c-0.651,0-1.186,0.439-1.186,0.992c0,0.553,0.534,1.008,1.186,1.008h7.724
			c0.649,0,1.184-0.455,1.184-1.008c0-0.539-0.534-0.992-1.184-0.992H45.086z M48.889,29.62c-0.65,0-1.185,0.443-1.185,1
			c0,0.543,0.534,1,1.185,1h2.603c0.649,0,1.184-0.443,1.184-1c0-0.543-0.534-1-1.184-1H48.889z M60.565,40.008
			c0.65,0,1.185-0.451,1.185-1s-0.534-1-1.185-1H42.934c-0.65,0-1.184,0.451-1.184,1s0.533,1,1.184,1H60.565z M58.413,44.186
			c0.651,0,1.186-0.449,1.186-1c0-0.549-0.534-1-1.186-1h-7.724c-0.649,0-1.184,0.451-1.184,1c0,0.551,0.534,1,1.184,1H58.413z
			 M54.627,48.381c0.65,0,1.185-0.451,1.185-1c0-0.551-0.534-1-1.185-1h-2.602c-0.651,0-1.186,0.449-1.186,1
			c0,0.549,0.534,1,1.186,1H54.627z"/>
	</g>
</g>
</svg>
