<?xml version="1.0" encoding="utf-8"?>
<!-- Generator: Adobe Illustrator 16.0.3, SVG Export Plug-In . SVG Version: 6.00 Build 0)  -->
<!DOCTYPE svg PUBLIC "-//W3C//DTD SVG 1.1//EN" "http://www.w3.org/Graphics/SVG/1.1/DTD/svg11.dtd">
<svg version="1.1" id="Vrstva_1" xmlns="http://www.w3.org/2000/svg" xmlns:xlink="http://www.w3.org/1999/xlink" x="0px" y="0px"
	 width="45px" height="45px" viewBox="0 0 45 45" enable-background="new 0 0 45 45" xml:space="preserve">
<g id="smart_klic">
	<defs>
		<path id="SVGID_1_" d="M45,36.079C45,41.006,41.006,45,36.079,45H8.921C3.994,45,0,41.006,0,36.079V8.921C0,3.994,3.994,0,8.921,0
			h27.158C41.006,0,45,3.994,45,8.921V36.079z"/>
	</defs>
	<clipPath id="SVGID_2_">
		<use xlink:href="#SVGID_1_"  overflow="visible"/>
	</clipPath>
	<g id="bkg_ico" clip-path="url(#SVGID_2_)">
		<path fill="#FFFFFF" d="M8.921,44.5c-4.643,0-8.421-3.778-8.421-8.421V8.921C0.5,4.278,4.278,0.5,8.921,0.5h27.158
			c4.643,0,8.421,3.778,8.421,8.421v27.158c0,4.643-3.778,8.421-8.421,8.421H8.921z"/>
		<path fill="#003366" d="M36.079,1C40.447,1,44,4.553,44,8.921v27.158C44,40.447,40.447,44,36.079,44H8.921
			C4.553,44,1,40.447,1,36.079V8.921C1,4.553,4.553,1,8.921,1H36.079 M36.079,0H8.921C3.994,0,0,3.994,0,8.921v27.158
			C0,41.006,3.994,45,8.921,45h27.158C41.006,45,45,41.006,45,36.079V8.921C45,3.994,41.006,0,36.079,0L36.079,0z"/>
	</g>
	<g clip-path="url(#SVGID_2_)">
		<radialGradient id="SVGID_3_" cx="22.5" cy="22.5" r="14.955" gradientUnits="userSpaceOnUse">
			<stop  offset="0" style="stop-color:#88CFEA"/>
			<stop  offset="1" style="stop-color:#0097CB"/>
		</radialGradient>
		<path fill="url(#SVGID_3_)" d="M10.958,12.42l11.132-1.018c0.059-0.005,0.118-0.008,0.176-0.008c0.846,0,1.585,0.567,1.837,1.357
			c0.55-0.286,1.155-0.47,1.79-0.536c-0.485-1.567-1.957-2.694-3.627-2.694c-0.115,0-0.231,0.005-0.346,0.016l-11.133,1.018
			c-2.087,0.191-3.631,2.046-3.44,4.135l0.753,8.258l0.232,0.085c0.358,0.131,0.743,0.267,1.142,0.401l0.568,0.192l-0.832-9.107
			C9.115,13.458,9.898,12.517,10.958,12.42z M38.863,22.745c0.753-1.74-0.048-3.769-1.787-4.523l-9.303-4.036
			c-0.433-0.188-0.89-0.283-1.36-0.283c-1.375,0-2.616,0.812-3.159,2.066L18.79,26.168l0.556,0.123
			c0.363,0.08,0.727,0.159,1.091,0.238l0.374,0.081l4.303-9.831c0.224-0.515,0.733-0.848,1.3-0.848c0.19,0,0.377,0.039,0.553,0.115
			l9.303,4.036c0.713,0.31,1.042,1.142,0.732,1.855l-3.294,7.604l0.515,0.146c0.354,0.1,0.704,0.202,1.051,0.306l0.398,0.119
			L38.863,22.745z M39.157,34.868c0.028-0.241,0.042-0.478,0.042-0.703v-0.833l-0.297-0.117c-4.494-1.764-9.855-2.897-15.531-4.098
			c-5.893-1.246-11.985-2.534-16.922-4.59l-0.648-0.27v2.196l0.293,0.118c5.036,2.031,11.046,3.302,16.857,4.531
			c5.737,1.213,11.156,2.359,15.565,4.145l0.57,0.231L39.157,34.868z"/>
		<linearGradient id="SVGID_4_" gradientUnits="userSpaceOnUse" x1="13.8921" y1="19.3604" x2="13.8921" y2="14.5493">
			<stop  offset="0" style="stop-color:#EA621C"/>
			<stop  offset="0.8" style="stop-color:#FBBE0A"/>
		</linearGradient>
		<path fill="url(#SVGID_4_)" d="M12.679,19.36c-0.468,0-0.857-0.352-0.906-0.817l-0.282-2.708c-0.024-0.241,0.046-0.479,0.2-0.667
			c0.153-0.189,0.371-0.307,0.613-0.332l2.707-0.282c0.509-0.052,0.949,0.315,1,0.812l0.282,2.708
			c0.024,0.241-0.046,0.479-0.199,0.667c-0.154,0.189-0.371,0.307-0.612,0.332l-2.708,0.282C12.741,19.359,12.71,19.36,12.679,19.36
			z"/>
	</g>
</g>
</svg>
