<svg width="70" height="70" viewBox="0 0 70 70" fill="none" xmlns="http://www.w3.org/2000/svg">
<path d="M23.3752 20.1245C23.3917 20.1245 23.4077 20.1246 23.4231 20.1247C22.287 25.3778 22.7653 30.7048 25.0078 35.0455C27.3476 39.5745 31.5743 42.9566 37.6837 44.0266L37.6849 44.0268C40.4774 44.5125 43.4233 44.054 45.7642 42.6461C48.1305 41.2231 49.8552 38.8376 50.1261 35.5889C50.543 30.6212 47.1349 26.2312 42.2928 25.3952L42.292 25.3951C34.8909 24.1237 29.4302 31.4497 31.5936 37.8655C29.2376 36.0811 27.5531 33.7236 26.5375 30.7741C25.8095 28.382 26.9685 25.8129 29.3915 23.7211C31.8019 21.6401 35.2491 20.2491 38.4791 20.2491C38.5278 20.2491 38.5765 20.2455 38.6247 20.2384C46.3406 19.1029 53.3145 24.2273 55.0073 31.4049C56.8985 39.4644 51.1405 48.1543 43.2685 50.0272L43.2684 50.0272C37.1196 51.4912 30.7926 51.0013 24.9089 48.5756C14.1132 44.1106 6.80905 33.2019 6.09461 21.3648C6.09236 21.1675 6.07047 20.9854 6.05026 20.8399C6.04079 20.7717 6.03254 20.7163 6.02519 20.667C6.01548 20.6018 6.00734 20.5472 6.00003 20.4875C5.99916 20.3751 6.01376 20.3008 6.02789 20.2566C6.04245 20.211 6.0568 20.1954 6.06029 20.1918C6.06356 20.1883 6.07666 20.1749 6.11748 20.1598C6.16151 20.1436 6.24208 20.1245 6.37163 20.1245H6.40484H6.43805H6.47126H6.50447H6.53768H6.57089H6.6041H6.63731H6.67052H6.70373H6.73694H6.77015H6.80336H6.83657H6.86978H6.90299H6.9362H6.96941H7.00262H7.03583H7.06904H7.10225H7.13546H7.16867H7.20188H7.23509H7.2683H7.30151H7.33472H7.36793H7.40114H7.43435H7.46756H7.50077H7.53398H7.56719H7.6004H7.63361H7.66682H7.70003H7.73324H7.76645H7.79966H7.83287H7.86608H7.89929H7.9325H7.96571H7.99892H8.03213H8.06534H8.09855H8.13176H8.16497H8.19818H8.23139H8.2646H8.29781H8.33102H8.36423H8.39744H8.43065H8.46386H8.49707H8.53028H8.56349H8.5967H8.62991H8.66312H8.69633H8.72954H8.76275H8.79596H8.82917H8.86238H8.89559H8.9288H8.96201H8.99522H9.02843H9.06164H9.09485H9.12806H9.16127H9.19448H9.22769H9.2609H9.29411H9.32732H9.36053H9.39374H9.42695H9.46016H9.49337H9.52658H9.55979H9.593H9.62621H9.65942H9.69263H9.72584H9.75905H9.79226H9.82547H9.85868H9.89189H9.9251H9.95831H9.99152H10.0247H10.0579H10.0912H10.1244H10.1576H10.1908H10.224H10.2572H10.2904H10.3236H10.3568H10.39H10.4233H10.4565H10.4897H10.5229H10.5561H10.5893H10.6225H10.6557H10.6889H10.7221H10.7554H10.7886H10.8218H10.855H10.8882H10.9214H10.9546H10.9878H11.021H11.0542H11.0875H11.1207H11.1539H11.1871H11.2203H11.2535H11.2867H11.3199H11.3531H11.3863H11.4196H11.4528H11.486H11.5192H11.5524H11.5856H11.6188H11.652H11.6852H11.7184H11.7517H11.7849H11.8181H11.8513H11.8845H11.9177H11.9509H11.9841H12.0173H12.0505H12.0838H12.117H12.1502H12.1834H12.2166H12.2498H12.283H12.3162H12.3494H12.3826H12.4159H12.4491H12.4823H12.5155H12.5487H12.5819H12.6151H12.6483H12.6815H12.7147H12.748H12.7812H12.8144H12.8476H12.8808H12.914H12.9472H12.9804H13.0136H13.0468H13.0801H13.1133H13.1465H13.1797H13.2129H13.2461H13.2793H13.3125H13.3457H13.3789H13.4122H13.4454H13.4786H13.5118H13.545H13.5782H13.6114H13.6446H13.6778H13.711H13.7443H13.7775H13.8107H13.8439H13.8771H13.9103H13.9435H13.9767H14.0099H14.0431H14.0764H14.1096H14.1428H14.176H14.2092H14.2424H14.2756H14.3088H14.342H14.3752H14.4085H14.4417H14.4749H14.5081H14.5413H14.5745H14.6077H14.6409H14.6741H14.7073H14.7406H14.7738H14.807H14.8402H14.8734H14.9066H14.9398H14.973H15.0062H15.0395H15.0727H15.1059H15.1391H15.1723H15.2055H15.2387H15.2719H15.3051H15.3383H15.3716H15.4048H15.438H15.4712H15.5044H15.5376H15.5708H15.604H15.6372H15.6704H15.7037H15.7369H15.7701H15.8033H15.8365H15.8697H15.9029H15.9361H15.9693H16.0025H16.0358H16.069H16.1022H16.1354H16.1686H16.2018H16.235H16.2682H16.3014H16.3346H16.3679H16.4011H16.4343H16.4675H16.5007H16.5339H16.5671H16.6003H16.6335H16.6667H16.7H16.7332H16.7664H16.7996H16.8328H16.866H16.8992H16.9324H16.9656H16.9988H17.0321H17.0653H17.0985H17.1317H17.1649H17.1981H17.2313H17.2645H17.2977H17.3309H17.3642H17.3974H17.4306H17.4638H17.497H17.5302H17.5634H17.5966H17.6298H17.663H17.6963H17.7295H17.7627H17.7959H17.8291H17.8623H17.8955H17.9287H17.9619H17.9951H18.0284H18.0616H18.0948H18.128H18.1612H18.1944H18.2276H18.2608H18.294H18.3272H18.3605H18.3937H18.4269H18.4601H18.4933H18.5265H18.5597H18.5929H18.6261H18.6593H18.6926H18.7258H18.759H18.7922H18.8254H18.8586H18.8918H18.925H18.9582H18.9914H19.0247H19.0579H19.0911H19.1243H19.1575H19.1907H19.2239H19.2571H19.2903H19.3235H19.3568H19.39H19.4232H19.4564H19.4896H19.5228H19.556H19.5892H19.6224H19.6556H19.6889H19.7221H19.7553H19.7885H19.8217H19.8549H19.8881H19.9213H19.9545H19.9877H20.021H20.0542H20.0874H20.1206H20.1538H20.187H20.2202H20.2534H20.2866H20.3198H20.3531H20.3863H20.4195H20.4527H20.4859H20.5191H20.5523H20.5855H20.6187H20.652H20.6852H20.7184H20.7516H20.7848H20.818H20.8512H20.8844H20.9176H20.9508H20.9841H21.0173H21.0505H21.0837H21.1169H21.1501H21.1833H21.2165H21.2497H21.2829H21.3162H21.3494H21.3826H21.4158H21.449H21.4822H21.5154H21.5486H21.5818H21.615H21.6483H21.6815H21.7147H21.7479H21.7811H21.8143H21.8475H21.8807H21.9139H21.9471H21.9804H22.0136H22.0468H22.08H22.1132H22.1464H22.1796H22.2128H22.246H22.2792H22.3125H22.3457H22.3789H22.4121H22.4453H22.4785H22.5117H22.5449H22.5781H22.6113H22.6446H22.6778H22.711H22.7442H22.7774H22.8106H22.8438H22.877H22.9102H22.9434H22.9767H23.0099H23.0431H23.0763H23.1095H23.1427H23.1759H23.2091H23.2423H23.2755H23.3088H23.342H23.3752Z" stroke="#0A77A9" stroke-width="2" stroke-linecap="round" stroke-linejoin="round"/>
<path d="M56.5615 42.8703C56.627 42.7378 56.6925 42.6032 56.7576 42.4669C57.5725 40.7618 58.4179 38.6252 58.6245 36.8021C58.8933 34.4594 59.0604 31.4835 58.9738 28.5337C58.8889 25.6388 58.5582 22.6976 57.8004 20.3947C57.7739 20.2504 57.7293 20.1425 57.7093 20.0946C57.6987 20.069 57.682 20.0314 57.675 20.0157C57.6736 20.0106 57.6722 20.0056 57.6709 20.0007C57.675 20.0005 57.6792 20.0002 57.6835 20H58.7209H62.7071C62.9907 20 63.1064 20.0282 63.1423 20.0399C63.1634 20.0722 63.2223 20.1797 63.2953 20.4621C63.9217 22.9385 64.1305 25.4428 63.9216 28.0106C63.6524 31.179 62.7867 34.1637 61.323 36.9722C60.4775 38.579 58.8752 40.4738 57.3372 42.0787C57.0724 42.355 56.8123 42.6199 56.5615 42.8703ZM63.1555 20.045C63.1555 20.045 63.1553 20.0449 63.1549 20.0447L63.1555 20.045Z" stroke="#0A77A9" stroke-width="2" stroke-linecap="round" stroke-linejoin="round"/>
</svg>
