<?xml version="1.0" encoding="utf-8"?>
<!-- Generator: Adobe Illustrator 16.0.3, SVG Export Plug-In . SVG Version: 6.00 Build 0)  -->
<!DOCTYPE svg PUBLIC "-//W3C//DTD SVG 1.1//EN" "http://www.w3.org/Graphics/SVG/1.1/DTD/svg11.dtd">
<svg version="1.1" id="Vrstva_1" xmlns="http://www.w3.org/2000/svg" xmlns:xlink="http://www.w3.org/1999/xlink" x="0px" y="0px"
	 width="22px" height="22px" viewBox="29 29 22 22" enable-background="new 29 29 22 22" xml:space="preserve">
<g>
	<defs>
		<rect id="SVGID_1_" x="29" y="29" width="22" height="22"/>
	</defs>
	<clipPath id="SVGID_2_">
		<use xlink:href="#SVGID_1_"  overflow="visible"/>
	</clipPath>
	<g clip-path="url(#SVGID_2_)">
		<path fill="#0A77A9" d="M40.283,34.554h-0.566c-0.453,0-0.821,0.369-0.821,0.821s0.369,0.821,0.821,0.821h0.566
			c0.453,0,0.821-0.369,0.821-0.821S40.736,34.554,40.283,34.554z"/>
		<g>
			<path fill="#0A77A9" d="M49.763,43.884l-1.403-1.565v-7.562c0-1.207-0.981-2.188-2.188-2.188H33.828
				c-1.207,0-2.188,0.982-2.188,2.188v7.562l-1.403,1.566c-0.241,0.177-0.387,0.461-0.387,0.762v0.395
				c0,0.824,0.67,1.494,1.494,1.494h4.522c-0.383-0.459-0.651-1.022-0.777-1.645h-3.481l1.222-1.428h1.953
				c0.077,0,0.147-0.024,0.218-0.044v-1.557c-0.071-0.02-0.141-0.044-0.218-0.044h-1.499v-7.062c0-0.3,0.244-0.545,0.544-0.545
				h12.344c0.301,0,0.545,0.245,0.545,0.545v7.062h-1.499c-0.077,0-0.146,0.024-0.218,0.044v1.557
				c0.071,0.02,0.141,0.044,0.218,0.044h1.952l1.223,1.428h-3.481c-0.127,0.623-0.394,1.188-0.776,1.645h4.521
				c0.824,0,1.494-0.67,1.494-1.494v-0.395C50.15,44.346,50.004,44.062,49.763,43.884z"/>
			<path fill="#0A77A9" d="M42.146,41.772c-0.286-0.293-0.791-0.293-1.081-0.003l-1.307,1.307l-0.588-0.588
				c-0.289-0.291-0.796-0.287-1.077-0.005c-0.145,0.144-0.225,0.334-0.226,0.538s0.078,0.396,0.224,0.543l1.124,1.122
				c0.144,0.148,0.337,0.229,0.544,0.229c0.207,0,0.406-0.085,0.539-0.225l1.846-1.844c0.146-0.146,0.225-0.339,0.224-0.543
				S42.285,41.909,42.146,41.772z"/>
			<path fill="#0A77A9" d="M43.57,39.526c-1.284-0.12-2.724-1.09-3.134-1.384c-0.261-0.188-0.612-0.187-0.874,0
				c-0.411,0.294-1.852,1.265-3.132,1.385c-0.386,0.036-0.68,0.359-0.68,0.747v3.79c0,0.985,0.413,1.881,1.107,2.396
				c0.619,0.457,2.479,1.685,2.52,1.709l0.209,0.139c0.125,0.083,0.27,0.125,0.415,0.125s0.29-0.042,0.416-0.126l0.179-0.119
				c0.062-0.037,1.934-1.274,2.549-1.728c0.692-0.513,1.106-1.408,1.106-2.396v-3.79C44.25,39.885,43.955,39.562,43.57,39.526z
				 M42.75,44.063c0,0.507-0.191,0.963-0.498,1.189c-0.468,0.346-1.745,1.195-2.252,1.53c-0.5-0.33-1.788-1.188-2.25-1.529
				c-0.309-0.229-0.5-0.685-0.5-1.19v-3.157c1.079-0.255,2.101-0.827,2.75-1.247c0.648,0.42,1.669,0.992,2.75,1.247V44.063z"/>
		</g>
	</g>
</g>
</svg>
