<svg viewBox="0 0 68 34" width="68" height="34" xmlns="http://www.w3.org/2000/svg">
    <symbol id="icon" viewBox="0 0 24 24">
        <path d="m9.5 22c-.3 0-.7-.2-.8-.5-.9-2.4-2.2-4.7-4-6.6-1.4-1.8-2.7-3.3-2.7-6 0-3.8 3.4-6.9 7.5-6.9s7.5 3.1 7.5 6.9c0 2.7-1.3 4.2-2.7 6-1.7 1.9-3.1 4.2-4 6.6-.1.3-.5.5-.8.5zm0-14c .8 0 1.5.7 1.5 1.5s-.7 1.5-1.5 1.5-1.5-.7-1.5-1.5.7-1.5 1.5-1.5z" fill="none" stroke-width="2" transform="translate(2,0)"/>
    </symbol>
    <rect width="68" height="34" x="0" y="0" fill="transparent" />
    <rect width="24" height="24" x="5" y="5" fill="transparent" />
    <rect width="24" height="24" x="39" y="5" fill="transparent" />
    <use href="#icon" x="5" y="5" width="24" height="24" fill="white" stroke="white" />
    <use href="#icon" x="39" y="5" width="24" height="24" fill="#0a77a9" stroke="#0a77a9" />
</svg>