<svg viewBox="0 0 68 34" width="68" height="34" xmlns="http://www.w3.org/2000/svg">
    <symbol id="icon" viewBox="0 0 24 24">
        <path d="m5.7 2 2.9 4.3-1.3 2.7c2.2 2.9 4.7 5.5 7.7 7.7l2.7-1.3 4.3 2.9c-.3.6-.7 1.2-1.2 1.7-1.4 1.5-3.5 2.2-5.5 2-2.7-1.6-5.2-3.6-7.5-5.8-2.2-2.3-4.1-4.8-5.8-7.5-.2-2 .5-4.1 2-5.5.5-.5 1.1-.9 1.7-1.2z" fill="none" stroke-linejoin="round" stroke-width="2"/>
    </symbol>
    <rect width="68" height="34" x="0" y="0" fill="transparent" />
    <rect width="24" height="24" x="5" y="5" fill="transparent" />
    <rect width="24" height="24" x="39" y="5" fill="transparent" />
    <use href="#icon" x="5" y="5" width="24" height="24" fill="white" stroke="white" />
    <use href="#icon" x="39" y="5" width="24" height="24" fill="#0a77a9" stroke="#0a77a9" />
</svg>