<svg width="25" height="24" viewBox="0 0 25 24" fill="none" xmlns="http://www.w3.org/2000/svg">
<path d="M19.1243 11.2573V16.316C17.1704 17.7646 14.8026 18.5465 12.3704 18.5465C9.93812 18.5465 7.57031 17.7646 5.61646 16.316V11.2573" stroke="#0A77A9" stroke-linecap="round" stroke-linejoin="round"/>
<path d="M2.5 8.53711V9.8923L12.5 13.9285L22.5 9.8923V8.53711" stroke="#0A77A9" stroke-linecap="round" stroke-linejoin="round"/>
<path d="M22.5 8.53711L12.5 12.5733L2.5 8.53711" stroke="#0A77A9" stroke-linecap="round" stroke-linejoin="round"/>
<path d="M22.5 8.53718L12.5 5L2.5 8.53718" stroke="#0A77A9" stroke-linecap="round" stroke-linejoin="round"/>
<path d="M12.0842 8.0874L17.549 10.5825L17.5343 18.2733" stroke="#0A77A9" stroke-linecap="round" stroke-linejoin="round"/>
<path d="M17.5489 19.8682C17.9704 19.8682 18.3121 19.5265 18.3121 19.105C18.3121 18.6835 17.9704 18.3418 17.5489 18.3418C17.1273 18.3418 16.7856 18.6835 16.7856 19.105C16.7856 19.5265 17.1273 19.8682 17.5489 19.8682Z" stroke="#0A77A9" stroke-linecap="round" stroke-linejoin="round"/>
</svg>
