<svg width="25" height="24" viewBox="0 0 25 24" fill="none" xmlns="http://www.w3.org/2000/svg">
<path d="M13.2498 2.68329C13.5973 2.41435 13.9954 2.21828 14.4205 2.10682C14.8455 1.99537 15.2887 1.97082 15.7234 2.03464C16.1582 2.09846 16.5756 2.24935 16.9507 2.47827C17.3258 2.70718 17.6508 3.0094 17.9063 3.36687C18.4198 4.09382 18.6982 4.96068 18.704 5.85069C18.7097 6.74069 18.4425 7.6111 17.9385 8.34462C17.3872 9.16461 16.7248 9.90416 15.9703 10.5421C14.9335 11.4597 12.5065 13.4278 12.5065 13.4278C12.5065 13.4278 9.60707 11.0468 8.34084 9.8861C7.61688 9.25433 7.04054 8.47125 6.65254 7.59221C6.36156 6.94253 6.23888 6.23003 6.2958 5.52044C6.35273 4.81085 6.58743 4.12703 6.97827 3.53205C7.22629 3.14361 7.55316 2.81161 7.9377 2.55759C8.32224 2.30358 8.75587 2.13321 9.21047 2.05751C9.66507 1.98182 10.1305 2.00249 10.5766 2.11819C11.0227 2.2339 11.4395 2.44208 11.8 2.72919C11.9698 2.87141 12.479 3.4724 12.479 3.4724C12.7199 3.19415 12.9773 2.93063 13.2498 2.68329V2.68329Z" stroke="#0A77A9" stroke-linecap="round" stroke-linejoin="round"/>
<path d="M14.2686 19.4329C14.2686 17.8088 14.2686 17.2813 14.2686 15.6572C14.2619 15.171 14.39 14.6925 14.6386 14.2747C14.8872 13.8569 15.2466 13.516 15.677 13.2899C16.6726 12.7944 16.7918 12.7898 17.5121 12.4779C18.123 12.2071 18.6631 11.7988 19.0903 11.285C19.2407 11.0899 19.432 10.9301 19.6507 10.8168C19.8695 10.7034 20.1104 10.6393 20.3565 10.629V10.4134C20.3565 9.52334 20.3565 8.62872 20.3565 7.73869C20.3565 6.84866 20.5997 6.23389 21.4255 6.23389C22.2513 6.23389 22.4899 6.88996 22.4899 7.74328C22.4899 9.39947 22.5128 11.0557 22.4899 12.7073C22.4577 14.5011 22.1182 15.9187 20.8979 16.7949C19.939 17.4969 18.9848 17.8777 18.8884 18.4878C18.8884 18.731 18.8884 19.3228 18.8884 19.3228" stroke="#0A77A9" stroke-linecap="round" stroke-linejoin="round"/>
<path d="M18.5671 14.5793C19.3318 13.8085 20.0964 13.0439 20.861 12.2854C20.9963 12.1676 21.0955 12.014 21.147 11.8423C21.1986 11.6705 21.2005 11.4877 21.1525 11.3149C21.1046 11.1421 21.0086 10.9864 20.8758 10.8659C20.7431 10.7454 20.5789 10.6649 20.4022 10.6338" stroke="#0A77A9" stroke-linecap="round" stroke-linejoin="round"/>
<path d="M13.25 22.0435L19.7555 22.0481V19.4331H13.25V22.0435Z" stroke="#0A77A9" stroke-linecap="round" stroke-linejoin="round"/>
<path d="M6.11568 19.3228C6.11568 19.3228 6.11568 18.731 6.11568 18.4878C6.01933 17.8777 5.06508 17.4969 4.10623 16.7949C2.88588 15.9049 2.54639 14.5011 2.51427 12.7073C2.48216 11.0557 2.51427 9.39947 2.51427 7.74328C2.51427 6.88996 2.75743 6.23389 3.57864 6.23389C4.39985 6.23389 4.64758 6.88536 4.64758 7.73869C4.64758 8.59202 4.64758 9.52334 4.64758 10.4134V10.629C4.89373 10.6393 5.13462 10.7034 5.35336 10.8168C5.57211 10.9301 5.7634 11.0899 5.91381 11.285C6.34104 11.7988 6.88113 12.2071 7.49201 12.4779C8.20311 12.7898 8.3224 12.7944 9.32712 13.2899C9.75754 13.516 10.1169 13.8569 10.3655 14.2747C10.6141 14.6925 10.7422 15.171 10.7356 15.6572C10.7356 17.2813 10.7356 17.8088 10.7356 19.4329" stroke="#0A77A9" stroke-linecap="round" stroke-linejoin="round"/>
<path d="M4.56498 10.6245C4.38837 10.6556 4.22417 10.7361 4.09139 10.8566C3.95861 10.9772 3.86267 11.1328 3.81468 11.3056C3.76668 11.4784 3.76859 11.6613 3.82018 11.833C3.87177 12.0048 3.97093 12.1584 4.1062 12.2761C4.87694 13.0408 5.64157 13.8054 6.40009 14.57" stroke="#0A77A9" stroke-linecap="round" stroke-linejoin="round"/>
<path d="M11.7452 22.0435L5.23975 22.0481V19.4331H11.7452V22.0435Z" stroke="#0A77A9" stroke-linecap="round" stroke-linejoin="round"/>
</svg>
