<svg width="25" height="24" viewBox="0 0 25 24" fill="none" xmlns="http://www.w3.org/2000/svg">
<path d="M21.6311 12.2988V18.6988C21.6311 19.0125 21.5074 19.3134 21.2872 19.5353C21.067 19.7571 20.7684 19.8818 20.457 19.8818H4.54271C4.23133 19.8818 3.9327 19.7571 3.71252 19.5353C3.49235 19.3134 3.36865 19.0125 3.36865 18.6988V12.3107" stroke="#0A77A9" stroke-linecap="round" stroke-linejoin="round"/>
<path d="M11.053 13.5762L3.3688 12.1921C3.1247 12.1488 2.90365 12.02 2.74467 11.8285C2.58569 11.6369 2.49903 11.3948 2.50001 11.1451V8.10487C2.50001 7.80524 2.61813 7.51788 2.8284 7.30601C3.03867 7.09414 3.32385 6.9751 3.62121 6.9751H21.3788C21.6757 6.97665 21.96 7.09617 22.1699 7.3077C22.3798 7.51924 22.4985 7.80572 22.5 8.10487V11.1451C22.4996 11.3954 22.4117 11.6375 22.2517 11.829C22.0918 12.0204 21.87 12.149 21.6253 12.1921L13.8648 13.5939" stroke="#0A77A9" stroke-linecap="round" stroke-linejoin="round"/>
<path d="M8.16479 6.9752V5.45505C8.16635 5.0686 8.31979 4.69853 8.59154 4.42582C8.86329 4.15311 9.23121 4 9.61475 4H15.3852C15.7682 4 16.1355 4.1533 16.4063 4.42618C16.6772 4.69906 16.8293 5.06914 16.8293 5.45505V6.9752" stroke="#0A77A9" stroke-linecap="round" stroke-linejoin="round"/>
<path d="M18.6255 19.7988C18.6255 19.0144 18.9347 18.2622 19.4852 17.7075C20.0356 17.1529 20.7822 16.8413 21.5606 16.8413" stroke="#0A77A9" stroke-linecap="round" stroke-linejoin="round"/>
<path d="M3.41577 16.8237C4.19422 16.8237 4.94077 17.1353 5.49122 17.69C6.04166 18.2446 6.35091 18.9968 6.35091 19.7812" stroke="#0A77A9" stroke-linecap="round" stroke-linejoin="round"/>
<path d="M13.812 14.8832L12.6379 15.8C12.5954 15.8341 12.5426 15.8527 12.4882 15.8527C12.4339 15.8527 12.3811 15.8341 12.3385 15.8L11.1645 14.8832C11.1352 14.86 11.1115 14.8303 11.0953 14.7965C11.079 14.7627 11.0705 14.7256 11.0706 14.688V12.5409C11.0706 12.4766 11.0959 12.4149 11.1411 12.3695C11.1862 12.324 11.2474 12.2984 11.3112 12.2984H13.6593C13.6914 12.2976 13.7234 12.3033 13.7533 12.3152C13.7831 12.327 13.8104 12.3447 13.8334 12.3673C13.8563 12.3899 13.8746 12.4169 13.887 12.4467C13.8995 12.4765 13.9059 12.5086 13.9059 12.5409V14.688C13.9059 14.7256 13.8975 14.7627 13.8812 14.7965C13.8649 14.8303 13.8413 14.86 13.812 14.8832Z" stroke="#0A77A9" stroke-linecap="round" stroke-linejoin="round"/>
<path d="M18.6258 19.7988C18.6258 19.0144 18.935 18.2622 19.4855 17.7075C20.0359 17.1529 20.7825 16.8413 21.5609 16.8413H21.6079V18.6986C21.6079 19.0124 21.4842 19.3132 21.264 19.5351C21.0438 19.7569 20.7452 19.8816 20.4338 19.8816H18.6023" stroke="#0A77A9" stroke-linecap="round" stroke-linejoin="round"/>
<path d="M6.392 19.7988C6.392 19.0144 6.08278 18.2622 5.53233 17.7075C4.98189 17.1529 4.23531 16.8413 3.45687 16.8413H3.40991V18.6986C3.40991 19.0124 3.53361 19.3132 3.75378 19.5351C3.97396 19.7569 4.27259 19.8816 4.58397 19.8816H6.40961" stroke="#0A77A9" stroke-linecap="round" stroke-linejoin="round"/>
</svg>
