<?xml version="1.0" encoding="utf-8"?>
<!-- Generator: Adobe Illustrator 28.3.0, SVG Export Plug-In . SVG Version: 6.00 Build 0)  -->
<svg version="1.1" xmlns="http://www.w3.org/2000/svg" xmlns:xlink="http://www.w3.org/1999/xlink" x="0px" y="0px"
	 viewBox="0 0 60 60" style="enable-background:new 0 0 60 60;" xml:space="preserve">
<style type="text/css">
	.st0{display:none;}
	.st1{display:inline;fill:none;stroke:#003366;stroke-width:2;stroke-linecap:round;stroke-linejoin:round;}
	.st2{display:inline;}
	.st3{fill:#003366;}
	.st4{fill:none;stroke:#003366;stroke-width:2.3;stroke-linecap:round;stroke-linejoin:round;stroke-miterlimit:10;}
	.st5{fill:none;stroke:#003366;stroke-width:2;stroke-linecap:round;stroke-linejoin:round;stroke-miterlimit:10;}
	.st6{fill:none;stroke:#003366;stroke-width:2;stroke-miterlimit:10;}
	.st7{fill:#003366;stroke:#003366;stroke-width:0.75;stroke-miterlimit:10;}
</style>
<g id="Vrstva_1" class="st0">
	<path class="st1" d="M19.1,25.4l19.4-7.3c0.4,1,1.1,1.8,2,2.2c0.9,0.4,2,0.5,3,0.1l1.9,5v0.1l0.7,1.9c-0.2,0.1-0.5,0.2-0.7,0.3
		 M45.3,35.7l6.7-2.5L44.1,12l-35,13.2l0.1,0.2 M45.3,25.4l-1.9-5c-1,0.4-2,0.3-3-0.1c-0.9-0.4-1.7-1.2-2-2.2l-19.4,7.3 M45.4,25.4
		v2.2c0.2-0.1,0.4-0.3,0.7-0.3L45.4,25.4z M8,25.4h37.3V48H8V25.4z M30.6,36.7c0,2.2-1.7,3.9-3.9,3.9c-2.2,0-3.9-1.8-3.9-3.9
		s1.7-3.9,3.9-3.9C28.8,32.8,30.6,34.5,30.6,36.7z M41.8,40.4V33c-1,0-2-0.4-2.7-1.1c-0.7-0.7-1.1-1.7-1.1-2.8H15.4
		c0,1-0.4,2-1.1,2.8S12.6,33,11.6,33v7.4c1,0,2,0.4,2.7,1.2c0.7,0.7,1.1,1.7,1.1,2.8c0,0.1,0,0.1,0,0.2h22.5v-0.2c0-1,0.4-2,1.1-2.8
		C39.8,40.8,40.8,40.4,41.8,40.4z M45.3,25.4L45.3,25.4L45.3,25.4L45.3,25.4z"/>
</g>
<g id="Vrstva_2" class="st0">
	<g id="NewGroupe10" class="st2">
		<g id="NewGroup0-16">
			<g>
				<path class="st3" d="M20.3,14c0-0.6,0.5-1.1,1.1-1.1h3.2c0.6,0,1.1,0.5,1.1,1.1c0,0.6-0.5,1.1-1.1,1.1h-3.2
					C20.8,15.1,20.3,14.6,20.3,14L20.3,14z M50.6,25.3h2.1c0.5,0,0.8,0.4,0.8,0.8c0,0.5-0.4,0.8-0.8,0.8h-2.1V25.3L50.6,25.3z
					 M52.7,30.9h-2.1v-1.7h2.1c0.5,0,0.8,0.4,0.8,0.8C53.6,30.5,53.2,30.9,52.7,30.9L52.7,30.9z M48.4,24.2V32
					c0,0.6,0.5,1.1,1.1,1.1h3.2c1.7,0,3.1-1.4,3.1-3.1c0-0.7-0.3-1.4-0.7-2c0.5-0.6,0.7-1.2,0.7-2c0-1.7-1.4-3.1-3.1-3.1h-3.2
					C48.9,23,48.4,23.6,48.4,24.2L48.4,24.2z M34.5,14v-3.4c-0.6-0.3-0.8-0.9-0.5-1.5c0.2-0.4,0.6-0.6,1-0.6h0.6
					c0.6,0,1.1,0.5,1.1,1.1V14c0,0.6-0.5,1.1-1.1,1.1C35,15.1,34.5,14.6,34.5,14L34.5,14z M24.4,8.3c0-0.6,0.5-1.1,1.1-1.1h2.3
					c0.5,0,0.9,0.3,1,0.8l0.6,2.1l1.6-4.2c0.2-0.4,0.6-0.7,1-0.7h6.5c0.6,0,1.1,0.5,1.1,1.1s-0.5,1.1-1.1,1.1H33l-2.5,6.5
					c-0.2,0.4-0.6,0.7-1,0.7h0c-0.5,0-0.9-0.3-1-0.8L27,9.4h-1.5C24.9,9.4,24.4,8.9,24.4,8.3L24.4,8.3z M45.4,15.6l1.6-1.6l-1.6-1.7
					c-0.4-0.5-0.3-1.2,0.1-1.6c0.4-0.4,1-0.4,1.5,0l1.6,1.6l1.6-1.6c0.4-0.4,1.1-0.4,1.6,0c0.4,0.4,0.4,1.1,0,1.6L50.2,14l1.6,1.6
					c0.4,0.4,0.4,1.1,0,1.6c-0.4,0.4-1.1,0.4-1.6,0l-1.6-1.6L47,17.2c-0.5,0.4-1.2,0.4-1.6-0.1C45,16.7,45,16,45.4,15.6L45.4,15.6z
					 M10.9,25.5V27h1.5c0.6,0,1.1,0.5,1.1,1.1s-0.5,1.1-1.1,1.1h-1.5v1.5c0,0.6-0.5,1.1-1.1,1.1s-1.1-0.5-1.1-1.1v-1.5H7.3
					c-0.6,0-1.1-0.5-1.1-1.1S6.6,27,7.3,27h1.5v-1.5c0-0.6,0.5-1.1,1.1-1.1S10.9,24.9,10.9,25.5L10.9,25.5z M10.5,13.9v-2.2
					c0-0.6,0.5-1.1,1.1-1.1s1.1,0.5,1.1,1.1v1.1H14c0.6,0,1.1,0.5,1.1,1.1c0,0.6-0.5,1.1-1.1,1.1h-2.3C11,15.1,10.5,14.6,10.5,13.9
					L10.5,13.9L10.5,13.9z M11.6,9.9c2.3,0,4.1,1.8,4.1,4.1c0,2.3-1.8,4.1-4.1,4.1c-2.2,0-4.1-1.8-4.1-4.1
					C7.5,11.7,9.4,9.9,11.6,9.9C11.6,9.9,11.6,9.9,11.6,9.9L11.6,9.9z M11.6,20.3c3.5,0,6.3-2.8,6.3-6.3c0-3.5-2.8-6.3-6.3-6.3
					c-3.5,0-6.3,2.8-6.3,6.3c0,0,0,0,0,0C5.3,17.4,8.1,20.3,11.6,20.3L11.6,20.3z M34.2,44.2c0.4,0.4,0.4,1.1,0,1.6
					c-1.9,1.9-5,1.9-6.9,0c-0.5-0.4-0.6-1.1-0.2-1.6c0.4-0.5,1.1-0.6,1.6-0.2c0.1,0.1,0.1,0.1,0.2,0.2c1,1,2.7,1,3.7,0
					C33.1,43.8,33.8,43.8,34.2,44.2C34.2,44.2,34.2,44.2,34.2,44.2L34.2,44.2z M36.8,38.8v1.4c0,0.6-0.5,1.1-1.1,1.1
					c-0.6,0-1.1-0.5-1.1-1.1v-1.4c0-0.6,0.5-1.1,1.1-1.1C36.3,37.7,36.8,38.2,36.8,38.8L36.8,38.8z M26.6,38.8v1.4
					c0,0.6-0.5,1.1-1.1,1.1c-0.6,0-1.1-0.5-1.1-1.1v-1.4c0-0.6,0.5-1.1,1.1-1.1C26.1,37.7,26.6,38.2,26.6,38.8L26.6,38.8z
					 M30.4,18.6c7.1,0,12.8,5.7,12.8,12.8v1c-0.4-0.1-0.8-0.1-1.2-0.1c-0.2,0-0.4,0.1-0.6,0.2h0c-7,4.3-14.4-2.3-14.7-2.6
					c-0.4-0.4-1.1-0.4-1.5,0c-3,2.9-5.4,2.5-5.5,2.5l0,0c-0.1,0-0.2-0.1-0.3-0.1c-0.6,0-1.1,0.1-1.6,0.2v-1.1
					C17.6,24.3,23.3,18.6,30.4,18.6L30.4,18.6z M43,41.7v-7c1.9,0.6,3,2.6,2.5,4.5C45.1,40.4,44.2,41.3,43,41.7L43,41.7L43,41.7z
					 M40.8,43c0.1,5.6-4.3,10.3-9.9,10.4c-5.6,0.1-10.3-4.3-10.4-9.9c0-0.2,0-0.3,0-0.5v-8.4c2-0.2,3.9-1.1,5.5-2.4
					c2.2,1.7,8.5,5.8,14.9,3.1V43L40.8,43z M15.6,38.2c0-1.6,1.1-3.1,2.6-3.5v7C16.6,41.2,15.6,39.8,15.6,38.2L15.6,38.2z
					 M15.3,33.7c-2.5,2.1-2.7,5.9-0.6,8.3c0.9,1,2.1,1.7,3.5,2c0.5,6.8,6.5,11.9,13.3,11.4C37.7,54.9,42.5,50.1,43,44
					c3.2-0.5,5.4-3.6,4.8-6.8c-0.3-1.5-1.1-2.9-2.4-3.8v-2C45.6,23.1,39,16.2,30.7,16c-8.3-0.2-15.2,6.4-15.3,14.8
					c0,0.2,0,0.4,0,0.6V33.7L15.3,33.7z"/>
			</g>
		</g>
	</g>
</g>
<g id="Vrstva_3" class="st0">
	<g class="st2">
		<g>
			<path class="st4" d="M55.7,42.5l-5.9-4.9c0,0-2.6-1.8-5.5-1.8c-3.3,0-5.7,1.3-6.9,2.2c-0.6,0.4-1.4,0.7-2.2,0.7l-6,0
				c-1.5,0-2.9,1.2-3,2.7c-0.1,1.6,1.2,3,2.8,3h10.5"/>
			<path class="st4" d="M48.1,52l-2.9-1.9H32c-1.3,0-2.7-0.4-3.8-1.2l-11.4-7.8c-0.8-0.6-1.3-1.7-0.9-2.8c0.3-0.8,1-1.4,1.8-1.5
				c0.6-0.1,1.2,0,1.6,0.3l7,3.8"/>
		</g>
		<g>
			<path class="st4" d="M16.7,6.3L28,8.9c0.7,0.2,1.3,0.5,1.8,1l5.7,5.7c0.7,0.7,1.1,1.7,1.1,2.7v5.2"/>
			<path class="st4" d="M4.3,14.9l1.9,1c0,0,0.7,5.2,4.6,8c2.9,2.1,6,2.4,7.4,2.5c0.6,0,1.1,0.2,1.6,0.4l7.7,3.9
				c1.3,0.8,3.1,0.5,4-0.8c0.9-1.4,0.5-3.2-0.9-4l-6.6-4.2c-1.1-0.7-1.2-2.2-0.2-3l1.9-1.7l5.4,3.3v1.5"/>
			<path class="st4" d="M25.4,29.6c0.7,3.2,3.6,5.5,6.9,5.3c3.7-0.2,6.5-3.4,6.3-7c-0.2-3.7-3.4-6.5-7-6.3c-1.8,0.1-3.3,0.9-4.4,2.1
				"/>
		</g>
	</g>
</g>
<g id="Vrstva_4" class="st0">
	<g class="st2">
		<path class="st3" d="M50.4,12.6H9.6c-1.5,0-2.8,1.3-2.8,2.8v11.9c0,1.5,1.3,2.8,2.8,2.8h3c0.6,0,1.1-0.5,1.1-1.1
			c0-0.6-0.5-1.1-1.1-1.1h-3c-0.3,0-0.6-0.3-0.6-0.6v-4.9h5.4v22.3c0,2.5,2,4.5,4.5,4.5h18h4.3c2.5,0,4.5-2,4.5-4.5V22.5h1.9
			c0.6,0,1.1-0.5,1.1-1.1c0-0.6-0.5-1.1-1.1-1.1h-3h-7.7H15.4H8.9v-4.9c0-0.3,0.3-0.6,0.6-0.6h40.9c0.3,0,0.6,0.3,0.6,0.6v11.9
			c0,0.3-0.3,0.6-0.6,0.6h-3.1c-0.6,0-1.1,0.5-1.1,1.1c0,0.6,0.5,1.1,1.1,1.1h3.1c1.5,0,2.8-1.3,2.8-2.8V15.4
			C53.3,13.9,52,12.6,50.4,12.6z M16.5,44.8V22.5h19.2v24.6H18.9C17.6,47.1,16.5,46.1,16.5,44.8z M43.5,22.5v22.3
			c0,1.3-1,2.3-2.3,2.3h-3.2V22.5H43.5z"/>
		<path class="st3" d="M26.9,30.9h-5.7c-0.6,0-1.1,0.5-1.1,1.1v11.3c0,0.6,0.5,1.1,1.1,1.1h5.7c0.6,0,1.1-0.5,1.1-1.1V32
			C28,31.4,27.5,30.9,26.9,30.9z M25.8,42.2h-3.5v-9.1h3.5V42.2z"/>
	</g>
</g>
<g id="Vrstva_5" class="st0">
	<g class="st2">
		<path class="st5" d="M45.2,42.1c0.4-0.8,1.3-1.4,2.3-1.4c1.4,0,2.6,1.1,2.6,2.6V53"/>
		<path class="st5" d="M45.2,45.7v-3.3c0-0.1,0-0.3,0-0.4c-0.2-1.2-1.2-2.2-2.5-2.2c-1,0-1.9,0.6-2.3,1.4v0"/>
		<path class="st5" d="M35.3,45.7v-4.2c0-1.4,1.1-2.6,2.6-2.6c1.3,0,2.4,1,2.5,2.3v0c0,0.1,0,0.2,0,0.3v4.2"/>
		<path class="st5" d="M30.5,48V32c0-0.7,0.3-1.3,0.7-1.7c0.4-0.4,1-0.7,1.7-0.7c1.3,0,2.4,1.1,2.4,2.4v13.8"/>
		<path class="st5" d="M28.5,52.6l-3.7-6.5c-0.6-1-0.2-2.2,0.7-2.7c0.3-0.2,0.7-0.3,1-0.3c0.7,0,1.4,0.4,1.7,1l2.2,3.9"/>
		<path class="st5" d="M8.5,52.9L8.3,38.3c0-1.6,0.4-3.2,1.2-4.7l4.7-8.4"/>
		<path class="st5" d="M14.2,42.9l4.4-8.4c0.4-0.8,1.1-1.2,1.9-1.2c0.4,0,0.8,0.1,1.2,0.4c1,0.7,1.3,2.1,0.7,3.3l-3.2,6
			c-0.2,0.4-0.2,0.8,0,1.2l0.1,0.1l1,1.8c0.5,0.9,0.8,2,0.8,3V53"/>
		<path class="st5" d="M38.2,9c0-1.9-1.5-3.4-3.4-3.4H17.7c-1.9,0-3.4,1.5-3.4,3.4v5.1v11v7.9"/>
		<line class="st5" x1="38.2" y1="32.7" x2="38.2" y2="29.4"/>
		<line class="st5" x1="19.3" y1="44.3" x2="19.3" y2="44.3"/>
		<g>
			<path class="st6" d="M48.8,26.2h-19c-1.3,0-2.3-1-2.3-2.3v-9.5c0-1.3,1-2.3,2.3-2.3h17.8c1.9,0,3.4,1.5,3.4,3.4v8.4
				C51,25.2,50,26.2,48.8,26.2z"/>
			<line class="st5" x1="31.5" y1="22.4" x2="33.8" y2="22.4"/>
			<line class="st5" x1="37" y1="22.4" x2="39.3" y2="22.4"/>
			<line class="st5" x1="42.5" y1="22.4" x2="44.8" y2="22.4"/>
			<line class="st5" x1="51" y1="15.9" x2="27.5" y2="15.9"/>
		</g>
	</g>
</g>
<g id="Vrstva_6" class="st0">
	<g class="st2">
		<path class="st5" d="M25.2,42.2c-11.4,0-20.7-6.3-20.7-14.1c0-6.1,5.8-11.4,13.9-13.3"/>
		<g>
			<path class="st5" d="M18.4,20c1.5,2.4,2.3,5.2,2.3,8.2c0,2.9-0.8,5.7-2.2,8"/>
			<path class="st5" d="M15.2,22.1c1.1,1.8,1.7,3.9,1.7,6.1c0,2.2-0.6,4.2-1.6,5.9"/>
			<path class="st5" d="M12,24.1c0.7,1.2,1.1,2.6,1.1,4.1c0,1.4-0.4,2.7-1,3.9"/>
		</g>
		<line class="st5" x1="43.7" y1="44.2" x2="44.3" y2="46.6"/>
		<path class="st5" d="M43.7,44.2c-0.8-0.2-1.6-0.5-2.4-0.9c-1.2-0.7-2.7-1.9-3.2-3"/>
		<path class="st5" d="M55.5,43.3L53,34.7c-0.6-2.2-2.1-4-4.1-5.1l-3.3-1.8"/>
		<path class="st5" d="M48.6,41.8c-1.1,0-2.2-0.2-3.1-0.7c-0.8-0.5-1.6-1.2-1.9-2.1c-0.3-0.9-0.5-1.8-1.2-2.5
			c-0.4-0.4-0.9-0.7-1.4-1.1c-0.8-0.7-1.2-1.9-0.9-3c0.2-0.8,0.8-1.9,1.7-1.3l2.1,1.3l6.1,3.8"/>
		<g>
			<g>
				<path class="st5" d="M37.6,15.6c-1.8-0.8-3.6-0.9-5.4-0.4c-1.7,0.5-3.2,1.6-4.2,3.1"/>
				<path class="st5" d="M37.1,18.5c-1.3-0.6-2.7-0.7-4-0.3c-1.3,0.4-2.3,1.2-3.1,2.3"/>
				<path class="st5" d="M36.7,21.3c-0.9-0.4-1.8-0.4-2.7-0.2c-0.8,0.2-1.5,0.8-2.1,1.5"/>
			</g>
			<path class="st5" d="M45.1,26l-4.1-14.3c-0.4-1.3-1.8-2-3.1-1.6l-12.9,3.7c-1.4,0.4-2.2,1.7-1.8,3l6.8,23.4
				c0.2,0.8,0.9,1.4,1.7,1.6c0.4,0.1,0.9,0.1,1.4,0l2.9-0.8"/>
			<line class="st5" x1="45.1" y1="26" x2="46.5" y2="31"/>
			<polyline class="st5" points="35.4,36.7 33,37.4 31.7,33 36.1,31.6 			"/>
		</g>
	</g>
</g>
<g id="Vrstva_7" class="st0">
	<g class="st2">
		<g>
			<g>
				<g>
					<g>
						<g>
							<path class="st7" d="M10.5,44.8c-0.2,0-0.3,0-0.4-0.1c-0.2-0.1-0.3-0.4-0.3-0.6V15.9c0-0.3,0.2-0.6,0.5-0.7
								c3.2-1.2,6.6-1.8,10-1.8c0.4,0,0.8,0.3,0.8,0.8c0,0.4-0.3,0.8-0.8,0.8c-3.1,0-6.1,0.5-9,1.5V43c5.8-1.9,12.1-1.9,18,0v-3.4
								c0-0.4,0.3-0.8,0.8-0.8c0.4,0,0.8,0.3,0.8,0.8v4.5c0,0.3-0.1,0.5-0.3,0.6c-0.2,0.1-0.5,0.2-0.7,0.1c-6.1-2.2-12.9-2.2-19,0
								C10.6,44.8,10.6,44.8,10.5,44.8z"/>
						</g>
					</g>
					<g>
						<g>
							<path class="st7" d="M49.5,44.8c-0.1,0-0.2,0-0.3,0c-6.1-2.2-12.9-2.2-19,0c-0.2,0.1-0.5,0.1-0.7-0.1
								c-0.2-0.1-0.3-0.4-0.3-0.6v-4.4c0-0.4,0.3-0.8,0.8-0.8c0.4,0,0.8,0.3,0.8,0.8V43c5.8-1.9,12.1-1.9,18,0V16.5
								c-2.9-1-6-1.5-9.2-1.5c-0.4,0-0.8-0.3-0.8-0.8c0-0.4,0.3-0.8,0.8-0.8c3.5,0,6.9,0.6,10.2,1.8c0.3,0.1,0.5,0.4,0.5,0.7v28.1
								c0,0.3-0.1,0.5-0.3,0.6C49.8,44.8,49.7,44.8,49.5,44.8z"/>
						</g>
					</g>
				</g>
				<g>
					<g>
						<path class="st7" d="M30,49.7c-1.4,0-2.8-0.4-4-1.3H7c-0.4,0-0.8-0.3-0.8-0.8V18.8c0-0.4,0.3-0.8,0.8-0.8
							c0.4,0,0.8,0.3,0.8,0.8v28h18.5c0.2,0,0.3,0.1,0.5,0.2c1.9,1.5,4.6,1.5,6.5,0c0.1-0.1,0.3-0.2,0.5-0.2h18.5v-28
							c0-0.4,0.3-0.8,0.8-0.8s0.8,0.3,0.8,0.8v28.8c0,0.4-0.3,0.8-0.8,0.8H34C32.8,49.3,31.4,49.7,30,49.7z"/>
					</g>
				</g>
			</g>
		</g>
		<g>
			<g>
				<g>
					<g>
						<path class="st7" d="M33.9,30.7c-0.3,0-0.5-0.1-0.7-0.4c-0.2-0.4-0.1-0.8,0.2-1.1c1.9-1.2,3.1-3.3,3.1-5.6
							c0-3.6-2.9-6.6-6.6-6.6c-3.6,0-6.6,2.9-6.6,6.6c0,2.3,1.2,4.4,3.1,5.6c0.4,0.2,0.5,0.7,0.2,1.1c-0.2,0.4-0.7,0.5-1.1,0.2
							c-2.4-1.5-3.8-4.1-3.8-6.9c0-4.5,3.6-8.1,8.1-8.1c4.5,0,8.1,3.6,8.1,8.1c0,2.8-1.4,5.4-3.8,6.9C34.2,30.7,34,30.7,33.9,30.7z"
							/>
					</g>
				</g>
				<g>
					<g>
						<path class="st7" d="M30,37.3c-0.4,0-0.7-0.1-1.1-0.2c-1.8-0.5-3.1-2.2-3.1-4.1v-0.5c0-0.4,0.3-0.8,0.8-0.8h6.8
							c0.4,0,0.8,0.3,0.8,0.8v0.5c0,1.9-1.3,3.5-3.1,4.1C30.7,37.3,30.4,37.3,30,37.3z M27.4,33.4c0.1,1.1,0.9,2,1.9,2.3
							c0.4,0.1,0.9,0.1,1.4,0c1-0.3,1.8-1.2,1.9-2.3H27.4z"/>
					</g>
				</g>
				<g>
					<g>
						<g>
							<path class="st7" d="M30,14.1c-0.4,0-0.8-0.3-0.8-0.8V11c0-0.4,0.3-0.8,0.8-0.8c0.4,0,0.8,0.3,0.8,0.8v2.3
								C30.8,13.7,30.4,14.1,30,14.1z"/>
						</g>
					</g>
					<g>
						<g>
							<path class="st7" d="M24.8,15.5c-0.3,0-0.5-0.1-0.7-0.4l-1.1-2c-0.2-0.4-0.1-0.8,0.3-1.1c0.4-0.2,0.8-0.1,1.1,0.3l1.1,2
								c0.2,0.4,0.1,0.8-0.3,1.1C25.1,15.4,25,15.5,24.8,15.5z"/>
						</g>
					</g>
					<g>
						<g>
							<path class="st7" d="M21.1,19.2c-0.1,0-0.3,0-0.4-0.1l-2-1.1c-0.4-0.2-0.5-0.7-0.3-1.1c0.2-0.4,0.7-0.5,1.1-0.3l2,1.1
								c0.4,0.2,0.5,0.7,0.3,1.1C21.6,19.1,21.3,19.2,21.1,19.2z"/>
						</g>
					</g>
					<g>
						<g>
							<path class="st7" d="M19.7,24.4h-2.3c-0.4,0-0.8-0.3-0.8-0.8c0-0.4,0.3-0.8,0.8-0.8h2.3c0.4,0,0.8,0.3,0.8,0.8
								C20.4,24.1,20.1,24.4,19.7,24.4z"/>
						</g>
					</g>
					<g>
						<g>
							<path class="st7" d="M19.1,30.7c-0.3,0-0.5-0.1-0.7-0.4c-0.2-0.4-0.1-0.8,0.3-1.1l2-1.1c0.4-0.2,0.8-0.1,1.1,0.3
								c0.2,0.4,0.1,0.8-0.3,1.1l-2,1.1C19.4,30.7,19.2,30.7,19.1,30.7z"/>
						</g>
					</g>
					<g>
						<g>
							<path class="st7" d="M40.9,30.7c-0.1,0-0.3,0-0.4-0.1l-2-1.1c-0.4-0.2-0.5-0.7-0.3-1.1c0.2-0.4,0.7-0.5,1.1-0.3l2,1.1
								c0.4,0.2,0.5,0.7,0.3,1.1C41.4,30.6,41.2,30.7,40.9,30.7z"/>
						</g>
					</g>
					<g>
						<g>
							<path class="st7" d="M42.6,24.4h-2.3c-0.4,0-0.8-0.3-0.8-0.8c0-0.4,0.3-0.8,0.8-0.8h2.3c0.4,0,0.8,0.3,0.8,0.8
								C43.4,24.1,43,24.4,42.6,24.4z"/>
						</g>
					</g>
					<g>
						<g>
							<path class="st7" d="M38.9,19.2c-0.3,0-0.5-0.1-0.7-0.4c-0.2-0.4-0.1-0.8,0.3-1.1l2-1.1c0.4-0.2,0.8-0.1,1.1,0.3
								c0.2,0.4,0.1,0.8-0.3,1.1l-2,1.1C39.2,19.2,39.1,19.2,38.9,19.2z"/>
						</g>
					</g>
					<g>
						<g>
							<path class="st7" d="M35.2,15.5c-0.1,0-0.3,0-0.4-0.1c-0.4-0.2-0.5-0.7-0.3-1.1l1.1-2c0.2-0.4,0.7-0.5,1.1-0.3
								c0.4,0.2,0.5,0.7,0.3,1.1l-1.1,2C35.7,15.3,35.4,15.5,35.2,15.5z"/>
						</g>
					</g>
				</g>
				<g>
					<g>
						<path class="st7" d="M30,32.8c-0.4,0-0.8-0.3-0.8-0.8l0-5L27,24.2c-0.3-0.4-0.4-0.9-0.2-1.4c0.2-0.5,0.7-0.7,1.2-0.7h4
							c0.5,0,1,0.3,1.2,0.7c0.2,0.5,0.2,1-0.1,1.4c-0.3,0.3-0.7,0.4-1.1,0.1c-0.2-0.2-0.3-0.4-0.3-0.7h-3.1l2.1,2.6
							c0.1,0.1,0.2,0.3,0.2,0.5l0,5.3C30.8,32.5,30.4,32.8,30,32.8C30,32.8,30,32.8,30,32.8z"/>
					</g>
				</g>
			</g>
		</g>
	</g>
</g>
<g id="Vrstva_8">
	<g>
		<g>
			<g>
				<path class="st5" d="M42.1,16.2v-4.6V7.9c0-1.7-1.4-3.1-3.1-3.1H20.4c-1.7,0-3.1,1.4-3.1,3.1v3.7v21.6"/>
				<path class="st5" d="M42.1,42.1v5.5v2.8c0,1.7-1.4,3.1-3.1,3.1H20.4c-1.5,0-2.7-1.1-3-2.5"/>
				<line class="st5" x1="42.1" y1="47.6" x2="24.9" y2="47.6"/>
				<line class="st5" x1="17.3" y1="11.6" x2="42.1" y2="11.6"/>
				<g>
					<line class="st5" x1="20.7" y1="8.2" x2="20.1" y2="8.2"/>
					<line class="st5" x1="23.5" y1="8.2" x2="22.9" y2="8.2"/>
					<line class="st5" x1="26.3" y1="8.2" x2="25.8" y2="8.2"/>
				</g>
				<line class="st5" x1="27.1" y1="50.4" x2="32.4" y2="50.4"/>
			</g>
			<g>
				<g>
					<path class="st5" d="M50.9,16.2"/>
					<path class="st5" d="M42.1,16.2h-9.2c-0.6,0-1,0.5-1,1V41c0,0.6,0.5,1,1,1h9.2h7.8c0.6,0,1-0.5,1-1V16.2H42.1z"/>
				</g>
				<g>
					<g>
						<g>
							<path class="st5" d="M35.2,22.2l0.7,0.8c0.2,0.2,0.6,0.2,0.8,0l2.7-2.4"/>
						</g>
					</g>
					<line class="st5" x1="48.1" y1="21.3" x2="42.1" y2="21.3"/>
					<g>
						<g>
							<path class="st5" d="M35.2,29.4l0.7,0.8c0.2,0.2,0.6,0.2,0.8,0l2.7-2.4"/>
						</g>
					</g>
					<line class="st5" x1="42.1" y1="29.1" x2="48.1" y2="29.1"/>
					<g>
						<g>
							<path class="st5" d="M35.2,36.7l0.7,0.8c0.2,0.2,0.6,0.2,0.8,0l2.7-2.4"/>
						</g>
					</g>
					<line class="st5" x1="42.1" y1="36.9" x2="48.1" y2="36.9"/>
				</g>
			</g>
		</g>
		<circle class="st5" cx="17.9" cy="42.1" r="8.9"/>
	</g>
	<g>
		<path class="st3" d="M13.8,41.5c0.4,0,0.9,0,1.2-0.1c0.4-0.2,0.5-0.7,0.7-1.5c0.2-0.9,0.8-1.5,2.4-1.2v1c-0.6,0-0.8,0.1-1,0.6
			c-0.2,0.8-0.4,1.4-0.9,1.8l2.1,3.2v0.2h-1.7l-1.7-2.8c-0.3,0.1-0.8,0.1-1.1,0.1v2.8h-1.5v-6.9h1.5V41.5z"/>
		<path class="st3" d="M22.2,42.5c-0.4-1.1-2.2-0.8-2.2,0.6c0,1.5,1.8,1.8,2.2,0.6h1.3c-0.4,2.7-4.9,2.6-4.9-0.6
			c0-3.1,4.4-3.3,4.9-0.6H22.2z M20.3,38.5l0.7,0.8l0.7-0.8h1.3v0.1l-1.4,1.4h-1.3L19,38.6v-0.1H20.3z"/>
	</g>
</g>
</svg>
