<svg width="25" height="24" viewBox="0 0 25 24" fill="none" xmlns="http://www.w3.org/2000/svg">
<path d="M12.4893 21.9625C14.2811 21.964 16.0552 21.6063 17.7074 20.9106C19.3597 20.2148 20.8568 19.195 22.1111 17.9108C22.3196 17.689 22.4521 17.4063 22.4893 17.1037C22.5265 16.8011 22.4665 16.4946 22.318 16.2286C22.2116 16.0487 22.0653 15.8959 21.8904 15.7821C21.7156 15.6682 21.5169 15.5964 21.3098 15.5722C21.1028 15.5479 20.8931 15.5719 20.6968 15.6423C20.5005 15.7127 20.323 15.8276 20.1782 15.978C19.1779 17.0042 17.9835 17.8195 16.665 18.3762C15.3465 18.9328 13.9304 19.2195 12.5 19.2195C11.0696 19.2195 9.65363 18.9328 8.33512 18.3762C7.01661 17.8195 5.82213 17.0042 4.82182 15.978C4.6763 15.8289 4.49869 15.7152 4.30263 15.6457C4.10657 15.5761 3.89727 15.5525 3.69072 15.5767C3.48417 15.6009 3.28587 15.6722 3.11103 15.7852C2.93619 15.8982 2.78945 16.0499 2.68204 16.2286V16.2286C2.53357 16.4946 2.47353 16.8011 2.51074 17.1037C2.54794 17.4063 2.68042 17.689 2.88887 17.9108C4.14069 19.1924 5.63441 20.2108 7.28278 20.9064C8.93115 21.6021 10.7011 21.9611 12.4893 21.9625Z" stroke="#0A77A9" stroke-linecap="round" stroke-linejoin="round"/>
<path d="M5.51367 2.23347L6.36245 2.0402C6.56386 1.99363 6.77244 1.98745 6.97623 2.02202C7.18002 2.0566 7.37504 2.13125 7.55001 2.24166C7.72498 2.35208 7.87649 2.4961 7.99584 2.66546C8.11519 2.83481 8.2 3.02616 8.24546 3.22852L10.2568 11.9189H15.7561C15.9627 11.9189 16.1674 11.9599 16.3582 12.0395C16.5491 12.1191 16.7224 12.2357 16.8682 12.3827C17.014 12.5297 17.1294 12.7042 17.2078 12.8961C17.2863 13.088 17.3262 13.2935 17.3252 13.501V14.3743H8.25974L5.51367 2.23347Z" stroke="#0A77A9" stroke-linecap="round" stroke-linejoin="round"/>
<path d="M8.92998 14.374L6.93286 17.5667" stroke="#0A77A9" stroke-linecap="round" stroke-linejoin="round"/>
<path d="M18.0386 17.5667L16.0415 14.374" stroke="#0A77A9" stroke-linecap="round" stroke-linejoin="round"/>
<path d="M9.40088 8.16064H17.2467C17.6686 8.16064 18.0732 8.32884 18.3714 8.62822C18.6697 8.92759 18.8373 9.33362 18.8373 9.757V10.3655" stroke="#0A77A9" stroke-linecap="round" stroke-linejoin="round"/>
<path d="M12.4751 8.15381L12.4894 11.7617" stroke="#0A77A9" stroke-linecap="round" stroke-linejoin="round"/>
<path d="M15.271 8.15381L15.2853 11.7617" stroke="#0A77A9" stroke-linecap="round" stroke-linejoin="round"/>
</svg>
