<?xml version="1.0" encoding="utf-8"?>
<!-- Generator: Adobe Illustrator 16.0.3, SVG Export Plug-In . SVG Version: 6.00 Build 0)  -->
<!DOCTYPE svg PUBLIC "-//W3C//DTD SVG 1.1//EN" "http://www.w3.org/Graphics/SVG/1.1/DTD/svg11.dtd" [
	<!ENTITY ns_extend "http://ns.adobe.com/Extensibility/1.0/">
	<!ENTITY ns_ai "http://ns.adobe.com/AdobeIllustrator/10.0/">
	<!ENTITY ns_graphs "http://ns.adobe.com/Graphs/1.0/">
	<!ENTITY ns_vars "http://ns.adobe.com/Variables/1.0/">
	<!ENTITY ns_imrep "http://ns.adobe.com/ImageReplacement/1.0/">
	<!ENTITY ns_sfw "http://ns.adobe.com/SaveForWeb/1.0/">
	<!ENTITY ns_custom "http://ns.adobe.com/GenericCustomNamespace/1.0/">
	<!ENTITY ns_adobe_xpath "http://ns.adobe.com/XPath/1.0/">
]>
<svg version="1.1" id="Layer_1" xmlns:x="&ns_extend;" xmlns:i="&ns_ai;" xmlns:graph="&ns_graphs;"
	 xmlns="http://www.w3.org/2000/svg" xmlns:xlink="http://www.w3.org/1999/xlink" x="0px" y="0px" width="32px" height="32px"
	 viewBox="0 0 32 32" enable-background="new 0 0 32 32" xml:space="preserve">
<metadata>
	<sfw  xmlns="&ns_sfw;">
		<slices></slices>
		<sliceSourceBounds  height="32" width="32" x="1401.5" y="976.5" bottomLeftOrigin="true"></sliceSourceBounds>
	</sfw>
</metadata>
<g>
	<defs>
		<rect id="SVGID_1_" width="32" height="32"/>
	</defs>
	<clipPath id="SVGID_2_">
		<use xlink:href="#SVGID_1_"  overflow="visible"/>
	</clipPath>
	<path clip-path="url(#SVGID_2_)" fill="#0A77A9" d="M22.11,31.249H9.888c-5.039,0-9.139-4.1-9.139-9.139V9.888
		c0-5.039,4.1-9.139,9.139-9.139H22.11c5.039,0,9.139,4.1,9.139,9.139V22.11C31.249,27.149,27.149,31.249,22.11,31.249z
		 M9.888,3.749c-3.385,0-6.139,2.754-6.139,6.139V22.11c0,3.385,2.754,6.139,6.139,6.139H22.11c3.385,0,6.139-2.754,6.139-6.139
		V9.888c0-3.385-2.754-6.139-6.139-6.139H9.888z M16,8.36c4.218,0,7.638,3.42,7.638,7.639c0,4.219-3.42,7.638-7.638,7.638
		s-7.639-3.419-7.639-7.638C8.361,11.781,11.781,8.36,16,8.36z M16,11.416c-2.53,0-4.583,2.053-4.583,4.583S13.47,20.582,16,20.582
		c2.531,0,4.583-2.053,4.583-4.583S18.53,11.416,16,11.416z M24.84,5.632c0.845,0,1.529,0.684,1.529,1.528
		c0,0.843-0.685,1.528-1.529,1.528c-0.842,0-1.528-0.685-1.528-1.528C23.312,6.316,23.998,5.632,24.84,5.632z"/>
</g>
</svg>
