<?xml version="1.0" encoding="utf-8"?>
<!-- Generator: Adobe Illustrator 16.0.3, SVG Export Plug-In . SVG Version: 6.00 Build 0)  -->
<!DOCTYPE svg PUBLIC "-//W3C//DTD SVG 1.1//EN" "http://www.w3.org/Graphics/SVG/1.1/DTD/svg11.dtd">
<svg version="1.1" id="Layer_1" xmlns="http://www.w3.org/2000/svg" xmlns:xlink="http://www.w3.org/1999/xlink" x="0px" y="0px"
	 width="32px" height="32px" viewBox="0 0 32 32" enable-background="new 0 0 32 32" xml:space="preserve">
<path id="ic_bvo" fill="#0A77A9" d="M20.291,14.242h3.695C23.998,13.662,24,13.044,24,12.383c0-0.25,0-0.494-0.002-0.73h-3.707
	c-0.694,0-1.26-0.562-1.26-1.252c0-0.691,0.565-1.251,1.26-1.251h3.638c-0.155-2.264-0.638-3.904-2.14-5.394
	C20.334,2.296,18.501,1.5,16,1.5c-2.5,0-4.334,0.796-5.788,2.255c-1.503,1.49-1.986,3.13-2.14,5.394h3.635
	c0.697,0,1.262,0.561,1.262,1.251c0,0.69-0.565,1.252-1.262,1.252H8.001C8,11.889,8,12.132,8,12.383
	c0,0.661,0.002,1.279,0.015,1.859h3.692c0.697,0,1.262,0.56,1.262,1.251s-0.565,1.252-1.262,1.252h-3.52
	c0.238,1.7,0.784,3.033,2.025,4.265c0.965,0.968,2.101,1.646,3.486,1.99v4.998H9.327c-0.696,0-1.261,0.559-1.261,1.252
	c0,0.69,0.564,1.25,1.261,1.25h13.346c0.697,0,1.261-0.56,1.261-1.25c0-0.693-0.563-1.252-1.261-1.252h-4.37V23
	c1.384-0.345,2.52-1.022,3.486-1.99c1.239-1.231,1.785-2.564,2.025-4.265h-3.523c-0.694,0-1.26-0.561-1.26-1.252
	S19.597,14.242,20.291,14.242z"/>
</svg>
