<svg width="71" height="70" viewBox="0 0 71 70" fill="none" xmlns="http://www.w3.org/2000/svg">
<path d="M54.2367 32.8037C50.7255 27.3038 45.1796 23.4178 38.8114 21.9952H38.6513" stroke="#003366" stroke-width="2" stroke-linecap="round" stroke-linejoin="round"/>
<path d="M54.2371 32.8021L54.584 32.6686C55.4903 32.3711 56.2929 31.8215 56.8979 31.0842C57.5029 30.3468 57.8852 29.4522 58 28.5054" stroke="#003366" stroke-width="2" stroke-linecap="round" stroke-linejoin="round"/>
<path d="M54.238 32.8044C54.238 33.0179 54.3981 33.178 54.4782 33.3115C55.3682 35.081 55.8773 37.0174 55.9728 38.9958C56.0799 41.2921 55.7134 43.5859 54.8962 45.7346C54.079 47.8832 52.8284 49.8408 51.2223 51.4855C51.1066 51.6002 51.016 51.7377 50.9563 51.8893C50.8965 52.041 50.869 52.2033 50.8755 52.3662C50.8755 54.3944 50.8755 56.4226 50.8755 58.4775C50.8924 58.6323 50.8742 58.7891 50.8225 58.936C50.7708 59.083 50.6869 59.2164 50.5767 59.3265C50.4666 59.4366 50.3332 59.5206 50.1863 59.5723C50.0394 59.624 49.8827 59.6421 49.7279 59.6252H43.0827C42.8437 59.6375 42.6073 59.5709 42.4097 59.4359C42.2121 59.301 42.0641 59.105 41.9886 58.8779C41.7856 58.4055 41.5446 57.9503 41.268 57.5168C41.0612 57.2011 40.7744 56.9459 40.4369 56.7771C40.0994 56.6084 39.7231 56.5321 39.3465 56.5561H32.5412C32.1283 56.5381 31.7165 56.6099 31.3341 56.7666C30.9516 56.9232 30.6078 57.161 30.3262 57.4636C29.8714 57.9487 29.4522 58.4659 29.0719 59.0113C28.953 59.213 28.7799 59.3775 28.5724 59.486C28.3649 59.5944 28.1312 59.6427 27.8976 59.6252H22.5602C21.5461 59.6252 21.2258 59.305 21.2258 58.2909V52.2061C21.2298 51.9906 21.1744 51.7783 21.0657 51.5922C20.4519 50.7382 19.8648 49.9109 19.2243 49.1103C18.7384 48.4604 18.0222 48.0212 17.2227 47.8827L14.0203 47.349C13.3264 47.2155 13.0062 46.8953 13.0062 46.2014V37.1811C12.9904 37.0346 13.0067 36.8865 13.054 36.747C13.1014 36.6075 13.1784 36.4799 13.28 36.3732C13.3816 36.2666 13.5053 36.1833 13.6423 36.1292C13.7794 36.0752 13.9266 36.0517 14.0736 36.0603C14.7922 36.0477 15.4886 35.8088 16.0635 35.3775C16.6385 34.9463 17.0629 34.3447 17.2761 33.6583C17.8941 31.9042 18.7956 30.2635 19.9449 28.8013C20.065 28.6649 20.1311 28.4894 20.1311 28.3076C20.1311 28.1258 20.065 27.9503 19.9449 27.8139L17.2761 23.3838C17.1551 23.2441 17.0735 23.0747 17.0396 22.8931C17.0056 22.7114 17.0207 22.524 17.0832 22.3501C17.1457 22.1762 17.2534 22.0221 17.3951 21.9036C17.5369 21.785 17.7077 21.7064 17.8899 21.6758C19.4897 21.0454 21.1881 20.7021 22.9071 20.6616C24.8173 20.5314 26.7109 21.09 28.2446 22.2362C28.3663 22.344 28.5155 22.4162 28.6757 22.4444C28.8358 22.4727 29.0007 22.4561 29.152 22.3964L29.8992 22.2362" stroke="#003366" stroke-width="2" stroke-linecap="round" stroke-linejoin="round"/>
<path d="M31.9262 26.264C32.9887 25.9758 34.0817 25.8146 35.1821 25.7837C35.7863 25.743 36.3926 25.743 36.9968 25.7837" stroke="#003366" stroke-width="2" stroke-linecap="round" stroke-linejoin="round"/>
<path d="M27.9245 28.0257C29.1726 27.285 30.5208 26.7278 31.9276 26.3711" stroke="#003366" stroke-width="2" stroke-linecap="round" stroke-linejoin="round"/>
<path d="M36.9972 25.9175C39.1113 26.1475 41.1554 26.8107 43.0018 27.8657" stroke="#003366" stroke-width="2" stroke-linecap="round" stroke-linejoin="round"/>
<path d="M25.2272 33.4969C25.2272 33.9003 25.067 34.2873 24.7817 34.5726C24.4964 34.8578 24.1094 35.018 23.706 35.018C23.4875 35.0469 23.2654 35.0288 23.0544 34.9649C22.8435 34.901 22.6487 34.7928 22.483 34.6476C22.3172 34.5023 22.1844 34.3232 22.0934 34.1225C22.0024 33.9218 21.9554 33.704 21.9554 33.4836C21.9554 33.2632 22.0024 33.0453 22.0934 32.8446C22.1844 32.6438 22.3172 32.4648 22.483 32.3195C22.6487 32.1742 22.8435 32.066 23.0544 32.0021C23.2654 31.9382 23.4875 31.9201 23.706 31.949C23.908 31.949 24.1081 31.9892 24.2944 32.0673C24.4807 32.1454 24.6496 32.2599 24.7912 32.404C24.9328 32.5481 25.0443 32.7189 25.1192 32.9065C25.194 33.0942 25.2307 33.2949 25.2272 33.4969V33.4969Z" stroke="#003366" stroke-width="2" stroke-linecap="round" stroke-linejoin="round"/>
<path d="M26.8555 13.9089C26.8555 13.3336 27.0261 12.7712 27.3457 12.2928C27.6653 11.8145 28.1196 11.4416 28.6512 11.2215C29.1827 11.0013 29.7676 10.9436 30.3319 11.0559C30.8962 11.1681 31.4145 11.4452 31.8213 11.852C32.2282 12.2588 32.5052 12.7772 32.6175 13.3414C32.7297 13.9057 32.672 14.4906 32.4519 15.0222C32.2317 15.5537 31.8589 16.008 31.3805 16.3276C30.9021 16.6473 30.3397 16.8178 29.7644 16.8178C29.3814 16.8214 29.0015 16.7486 28.647 16.6037C28.2925 16.4588 27.9703 16.2447 27.6995 15.9738C27.4287 15.703 27.2145 15.3809 27.0696 15.0263C26.9247 14.6718 26.8519 14.2919 26.8555 13.9089V13.9089Z" stroke="#003366" stroke-width="2" stroke-linecap="round" stroke-linejoin="round"/>
<path d="M29.7659 22.2349V22.4484C29.7667 23.2169 29.9661 23.9722 30.3448 24.6409C30.7236 25.3095 31.2688 25.8689 31.9276 26.2647" stroke="#003366" stroke-width="2" stroke-linecap="round" stroke-linejoin="round"/>
<path d="M29.7648 22.2336C29.8113 21.1076 30.2827 20.041 31.0841 19.2487C31.8856 18.4563 32.9574 17.9969 34.0839 17.9631C35.2105 17.9292 36.3079 18.3234 37.1554 19.0663C38.0029 19.8092 38.5376 20.8456 38.6516 21.9668" stroke="#003366" stroke-width="2" stroke-linecap="round" stroke-linejoin="round"/>
<path d="M36.996 25.9165C37.5225 25.5049 37.9478 24.9783 38.2392 24.3769C38.5307 23.7756 38.6805 23.1154 38.6773 22.4471C38.6773 22.287 38.6773 22.1269 38.6773 21.9668" stroke="#003366" stroke-width="2" stroke-linecap="round" stroke-linejoin="round"/>
</svg>
